<?xml version="1.0" encoding="UTF-8"?>
<svg id="Layer_1" data-name="Layer 1" xmlns="http://www.w3.org/2000/svg" viewBox="0 0 77.03 72.94">
  <defs>
    <style>
      .cls-1 {
        fill: #fff;
        stroke: #231f20;
        stroke-miterlimit: 10;
        stroke-width: .25px;
      }
    </style>
  </defs>
  <path class="cls-1" d="m44.69,35.54c3.31-2.45,5.46-6.37,5.46-10.8,0-7.42-4.64-12.06-12.06-12.06s-12.06,4.64-12.06,12.06c0,4.43,2.15,8.35,5.46,10.8-6.04,1.16-10.61,6.46-10.61,12.83v21.75s5.76,2.69,17.2,2.69,17.2-2.69,17.2-2.69v-21.75c0-6.38-4.57-11.68-10.61-12.83Z"/>
  <g>
    <path class="cls-1" d="m66.07,24.89c3.38-2.5,5.58-6.51,5.58-11.03,0-7.58-6.15-13.73-13.73-13.73-6.8,0-12.43,4.95-13.52,11.43,4.8,2.34,8.12,7.26,8.12,12.95,0,4.14-1.72,7.96-4.77,10.69,5.88,1.75,10.02,7.2,10.02,13.45v14.32c.05,0,.1,0,.15,0,11.7,0,18.98-2.75,18.98-2.75v-22.22c0-6.52-4.67-11.93-10.84-13.12Z"/>
    <path class="cls-1" d="m28.44,35.2c-3.05-2.73-4.77-6.56-4.77-10.69,0-6,3.68-11.14,8.9-13.32C31.33,4.88,25.78.12,19.11.12,11.53.12,5.38,6.27,5.38,13.86c0,4.53,2.2,8.53,5.58,11.03C4.79,26.07.12,31.49.12,38v22.22s7.01,2.63,18.3,2.74v-14.31c0-6.25,4.14-11.7,10.02-13.45Z"/>
  </g>
</svg>