<?xml version="1.0" encoding="UTF-8"?>
<svg id="Layer_1" data-name="Layer 1" xmlns="http://www.w3.org/2000/svg" xmlns:xlink="http://www.w3.org/1999/xlink" viewBox="0 0 7.11 22.37">
  <defs>
    <style>
      .cls-1 {
        fill: #22335a;
      }

      .cls-2 {
        stroke: #fff;
        stroke-miterlimit: 10;
        stroke-width: .31px;
      }

      .cls-2, .cls-3 {
        fill: none;
      }

      .cls-4 {
        clip-path: url(#clippath);
      }
    </style>
    <clipPath id="clippath">
      <rect class="cls-3" x="0" y="0" width="7.11" height="22.37"/>
    </clipPath>
  </defs>
  <g class="cls-4">
    <path class="cls-1" d="m4.72,18.32c.48-1.03,1.59-3.84,1.73-8.18C6.64,4.7,1.9.61,1.9.61c.02.05,2.28,4.64,2.12,9.44-.12,3.72-1.04,6.17-1.45,7.1L.2,15.87l1,6.28,5.58-2.72-2.06-1.11Z"/>
    <path class="cls-2" d="m4.72,18.32c.48-1.03,1.59-3.84,1.73-8.18C6.64,4.7,1.9.61,1.9.61c.02.05,2.28,4.64,2.12,9.44-.12,3.72-1.04,6.17-1.45,7.1L.2,15.87l1,6.28,5.58-2.72-2.06-1.11Z"/>
  </g>
</svg>