<svg xmlns="http://www.w3.org/2000/svg" xmlns:xlink="http://www.w3.org/1999/xlink" xmlns:inkscape="http://www.inkscape.org/namespaces/inkscape" version="1.1" width="102.047" height="102.047" viewBox="0 0 102.047 102.047">
<defs>
<clipPath id="clip_1">
<path transform="matrix(1,0,0,-1,0,102.047)" d="M0 102.047H102.047V0H0Z"/>
</clipPath>
</defs>
<g inkscape:groupmode="layer" inkscape:label="Layer 1">
<g clip-path="url(#clip_1)">
<path transform="matrix(1,0,0,-1,43.9025,53.679197)" d="M0 0C.128 .312 .255 .625 .376 .941 4.586 .644 8.765 1.748 10.317 6.32 11.561 9.984 5.768 11.557 4.531 7.915 4.212 6.975 3.173 6.72 2.069 6.724 2.711 10.165 2.624 13.672 1.195 17.084 .802 18.023 .154 19.04-.588 20.102-.108 22.321 .371 24.54 .851 26.759 1.399 25.359 2.274 24.093 3.403 23.11 2.984 19.613 4.258 16.504 6.413 13.766 8.93 10.567 14.151 7.279 12.85 2.606 12.106 1.699 11.358 .796 10.646-.11 9.66-1.363 8.768-2.69 7.963-4.067 5.331-2.865 2.599-1.532 0 0M36.127 6.164C34.434 9.634 29.258 6.596 30.946 3.136 31.969 1.039 31.447-.874 30.086-2.625 29.297-1.323 28.171-.193 27.008 .764 25.758 1.793 23.989 1.988 22.765 .764 21.704-.297 21.508-2.443 22.765-3.478 23.435-4.03 25.123-5.139 25.165-6.126 25.182-6.524 23.995-7.266 23.393-7.625 23.024-7.846 22.745-8.111 22.525-8.397 19.451-10.186 16.418-11.744 14.96-13.113 12.6-15.328 10.783-17.876 9.418-20.647 9.32-17.319 9.95-13.945 11.149-10.819 13.507-4.67 18.826-.514 22.148 5.036 24.8 9.467 25.931 14.452 24.441 19.467 24.411 19.568 24.38 19.665 24.349 19.765 24.684 22.307 25.916 24.523 27.788 26.294 30.6 28.952 26.351 33.19 23.545 30.536 22.797 29.829 22.136 29.064 21.545 28.259 20.958 30.502 20.64 32.829 20.925 35.496 21.334 39.331 15.331 39.302 14.925 35.496 14.27 29.364 16.323 24.622 18.279 18.987 18.263 18.326 18.428 17.781 18.727 17.362 19.328 14.498 18.784 11.943 17.645 9.56 17.335 10.147 16.994 10.726 16.591 11.287 16.394 11.562 16.18 11.832 15.959 12.1 15.981 12.182 16.018 12.257 16.03 12.343 16.303 14.34 16.577 16.336 16.85 18.332 17.07 19.936 16.463 21.554 14.755 22.023 13.355 22.408 11.286 21.543 11.064 19.928L10.794 17.958C10.035 19.095 9.505 20.325 9.389 21.717 9.479 21.905 9.556 22.11 9.613 22.336 10.342 25.199 12.586 27.279 13.12 30.336 13.659 33.423 13.248 36.474 12.826 39.546 12.303 43.355 6.521 41.733 7.04 37.951 7.399 35.341 7.814 32.418 6.799 29.907 6.676 29.601 6.535 29.307 6.387 29.018 6.218 29.475 6.179 29.909 6.207 30.49 6.285 32.109 4.772 33.49 3.207 33.49 1.517 33.49 .285 32.114 .207 30.49 .201 30.367 .219 30.245 .218 30.123-1.263 31.622-4.232 31.606-4.801 28.977-4.919 28.427-5.038 27.876-5.157 27.326-6.122 29.883-5.785 32.309-2.202 34.204 1.213 36.01-1.815 41.19-5.23 39.385-10.699 36.492-13.103 30.352-10.684 24.602-9.485 21.75-7.306 19.708-5.672 17.14-2.822 12.66-3.285 8.055-5.039 3.424-5.882 4.095-6.682 4.802-7.434 5.544-7.449 5.571-7.455 5.598-7.471 5.626-7.933 6.421-5.572 9.517-5.239 10.402-4.495 12.376-4.504 14.452-5.662 16.263-7.737 19.507-12.932 16.501-10.843 13.235-10.577 12.818-10.982 11.91-11.512 10.977-12.88 13.642-13.603 16.677-13.392 20.169-13.159 24.026-19.16 24.012-19.392 20.169-20.319 4.814-6.919-3.78 5.405-9.454 4.169-12.789 3.484-16.297 3.444-19.808 2.496-19.27 1.516-18.75 .516-18.223 .547-17.718 .637-17.217 .833-16.714 1.272-15.586 2.04-14.605 2.316-13.402 2.826-11.181 1.983-8.97 .021-7.793-3.02-5.97-5.794-10.163-3.695-12.407-3.887-12.755-4.076-13.103-4.262-13.454-4.478-13.896-4.673-14.356-4.846-14.821-6.649-13.12-7.638-11.085-8.619-8.185-9.596-5.299-10.957-3.165-13.593-1.591-16.916 .394-19.937-4.792-16.621-6.772-13.816-8.446-13.962-12.431-12.567-15.066-11.489-17.103-9.895-18.746-8.064-20.123-7.191-20.78-6.196-21.36-5.145-21.909-5.034-22.031-4.921-22.153-4.778-22.267-1.609-24.793 1.061-27.724 3.122-31.223 4.768-34.017 7.737-36.868 11.106-34.498 12.299-33.658 12.6-32.385 12.345-31.251 12.42-31.035 12.478-30.806 12.509-30.558 13.116-25.792 15.24-21.28 18.649-17.875 20.696-15.831 23.157-14.478 25.639-13.135 25.896-13.063 26.157-12.964 26.422-12.806 26.766-12.601 27.103-12.381 27.433-12.152 28.416-11.604 29.386-11.033 30.32-10.394 35.867-6.594 39.273-.283 36.127 6.164" fill="#135092"/>
<path transform="matrix(1,0,0,-1,43.9025,53.679197)" stroke-width=".5" stroke-linecap="butt" stroke-miterlimit="10" stroke-linejoin="miter" fill="none" stroke="#ffffff" d="M0 0C.128 .312 .255 .625 .376 .941 4.586 .644 8.765 1.748 10.317 6.32 11.561 9.984 5.768 11.557 4.531 7.915 4.212 6.975 3.173 6.72 2.069 6.724 2.711 10.165 2.624 13.672 1.195 17.084 .802 18.023 .154 19.04-.588 20.102-.108 22.321 .371 24.54 .851 26.759 1.399 25.359 2.274 24.093 3.403 23.11 2.984 19.613 4.258 16.504 6.413 13.766 8.93 10.567 14.151 7.279 12.85 2.606 12.106 1.699 11.358 .796 10.646-.11 9.66-1.363 8.768-2.69 7.963-4.067 5.331-2.865 2.599-1.532 0 0ZM36.127 6.164C34.434 9.634 29.258 6.596 30.946 3.136 31.969 1.039 31.447-.874 30.086-2.625 29.297-1.323 28.171-.193 27.008 .764 25.758 1.793 23.989 1.988 22.765 .764 21.704-.297 21.508-2.443 22.765-3.478 23.435-4.03 25.123-5.139 25.165-6.126 25.182-6.524 23.995-7.266 23.393-7.625 23.024-7.846 22.745-8.111 22.525-8.397 19.451-10.186 16.418-11.744 14.96-13.113 12.6-15.328 10.783-17.876 9.418-20.647 9.32-17.319 9.95-13.945 11.149-10.819 13.507-4.67 18.826-.514 22.148 5.036 24.8 9.467 25.931 14.452 24.441 19.467 24.411 19.568 24.38 19.665 24.349 19.765 24.684 22.307 25.916 24.523 27.788 26.294 30.6 28.952 26.351 33.19 23.545 30.536 22.797 29.829 22.136 29.064 21.545 28.259 20.958 30.502 20.64 32.829 20.925 35.496 21.334 39.331 15.331 39.302 14.925 35.496 14.27 29.364 16.323 24.622 18.279 18.987 18.263 18.326 18.428 17.781 18.727 17.362 19.328 14.498 18.784 11.943 17.645 9.56 17.335 10.147 16.994 10.726 16.591 11.287 16.394 11.562 16.18 11.832 15.959 12.1 15.981 12.182 16.018 12.257 16.03 12.343 16.303 14.34 16.577 16.336 16.85 18.332 17.07 19.936 16.463 21.554 14.755 22.023 13.355 22.408 11.286 21.543 11.064 19.928L10.794 17.958C10.035 19.095 9.505 20.325 9.389 21.717 9.479 21.905 9.556 22.11 9.613 22.336 10.342 25.199 12.586 27.279 13.12 30.336 13.659 33.423 13.248 36.474 12.826 39.546 12.303 43.355 6.521 41.733 7.04 37.951 7.399 35.341 7.814 32.418 6.799 29.907 6.676 29.601 6.535 29.307 6.387 29.018 6.218 29.475 6.179 29.909 6.207 30.49 6.285 32.109 4.772 33.49 3.207 33.49 1.517 33.49 .285 32.114 .207 30.49 .201 30.367 .219 30.245 .218 30.123-1.263 31.622-4.232 31.606-4.801 28.977-4.919 28.427-5.038 27.876-5.157 27.326-6.122 29.883-5.785 32.309-2.202 34.204 1.213 36.01-1.815 41.19-5.23 39.385-10.699 36.492-13.103 30.352-10.684 24.602-9.485 21.75-7.306 19.708-5.672 17.14-2.822 12.66-3.285 8.055-5.039 3.424-5.882 4.095-6.682 4.802-7.434 5.544-7.449 5.571-7.455 5.598-7.471 5.626-7.933 6.421-5.572 9.517-5.239 10.402-4.495 12.376-4.504 14.452-5.662 16.263-7.737 19.507-12.932 16.501-10.843 13.235-10.577 12.818-10.982 11.91-11.512 10.977-12.88 13.642-13.603 16.677-13.392 20.169-13.159 24.026-19.16 24.012-19.392 20.169-20.319 4.814-6.919-3.78 5.405-9.454 4.169-12.789 3.484-16.297 3.444-19.808 2.496-19.27 1.516-18.75 .516-18.223 .547-17.718 .637-17.217 .833-16.714 1.272-15.586 2.04-14.605 2.316-13.402 2.826-11.181 1.983-8.97 .021-7.793-3.02-5.97-5.794-10.163-3.695-12.407-3.887-12.755-4.076-13.103-4.262-13.454-4.478-13.896-4.673-14.356-4.846-14.821-6.649-13.12-7.638-11.085-8.619-8.185-9.596-5.299-10.957-3.165-13.593-1.591-16.916 .394-19.937-4.792-16.621-6.772-13.816-8.446-13.962-12.431-12.567-15.066-11.489-17.103-9.895-18.746-8.064-20.123-7.191-20.78-6.196-21.36-5.145-21.909-5.034-22.031-4.921-22.153-4.778-22.267-1.609-24.793 1.061-27.724 3.122-31.223 4.768-34.017 7.737-36.868 11.106-34.498 12.299-33.658 12.6-32.385 12.345-31.251 12.42-31.035 12.478-30.806 12.509-30.558 13.116-25.792 15.24-21.28 18.649-17.875 20.696-15.831 23.157-14.478 25.639-13.135 25.896-13.063 26.157-12.964 26.422-12.806 26.766-12.601 27.103-12.381 27.433-12.152 28.416-11.604 29.386-11.033 30.32-10.394 35.867-6.594 39.273-.283 36.127 6.164Z"/>
</g>
</g>
</svg>
