<?xml version="1.0" encoding="UTF-8"?>
<svg id="Layer_1" data-name="Layer 1" xmlns="http://www.w3.org/2000/svg" viewBox="0 0 84.23 59.86">
  <defs>
    <style>
      .cls-1 {
        fill: #58595b;
      }

      .cls-1, .cls-2 {
        stroke: #fff;
        stroke-miterlimit: 10;
      }

      .cls-2 {
        fill: #231f20;
        stroke-width: 1.16px;
      }
    </style>
  </defs>
  <path class="cls-2" d="m1.14,22.25c3.4.38,9.79,1.53,14.78,4.91,6.25-3.55,18.49-9.63,29.64-10.01,5.8-.2,10.26.57,12.76,1.16,1.17.17,19.9,3.11,25.27,15.58-4.38,9.05-16.75,13.35-22.42,14.89v.06s-8.82,3.02-21.66.99c-8.62-1.36-18.48-7.24-24.04-10.96-4.32,2.75-9.51,4.01-12.95,4.56-.76.12-1.17-.88-.53-1.32,4.38-2.97,7.05-6.71,7.07-9.34-.6-2.84-2.31-6.01-8.23-9.59-.47-.28-.24-1,.31-.94Zm68.05,9.62c1.55,0,2.8-1.25,2.8-2.8s-1.25-2.8-2.8-2.8-2.8,1.25-2.8,2.8,1.25,2.8,2.8,2.8Zm-10.13,12.88l.85-.62c-3.65-4.99-4.09-10.57-1.36-17.05l-.97-.41c-2.85,6.76-2.36,12.84,1.48,18.08Z"/>
  <path class="cls-1" d="m14.71,59.76c-.11-.55-2.62-13.84.92-32.1,2.78-14.39,0-19.42-.03-19.47.09.15.15.22.15.22-3.5-5.78,4.78-10.86,8.06-5.91.91,1.24,5.25,8.36,1.63,27.06-3.17,16.36-.8,30.08-.78,30.2"/>
  <path class="cls-1" d="m30.97,59.76c-2.4-11.26-2.85-22.8-.45-33.56.6-2.7,3.28-4.39,5.97-3.79,2.69.6,4.39,3.28,3.79,5.97-2.09,9.35-1.63,21.53.47,31.37"/>
  <path class="cls-1" d="m45.27,59.76c-.08-.43-1.95-11.53,1.65-25.96,2.93-11.71.2-19.54.17-19.62-.97-2.59.34-5.47,2.93-6.44,2.59-.97,5.47.34,6.44,2.93.16.43,3.89,10.66.17,25.56-3.05,12.2-1.38,23.45-1.36,23.53"/>
  <path class="cls-1" d="m61.26,59.76c-1.14-8.04-1.34-17.65-.31-24.54.41-2.73,2.96-4.62,5.68-4.21,2.73.41,4.62,2.95,4.21,5.68-.88,5.9-.38,16.04.62,23.07"/>
</svg>