<?xml version="1.0" encoding="UTF-8"?>
<svg id="Layer_1" data-name="Layer 1" xmlns="http://www.w3.org/2000/svg" viewBox="0 0 86.69 59.69">
  <defs>
    <style>
      .cls-1 {
        fill: #fff;
      }

      .cls-2 {
        fill: #ed1c24;
      }

      .cls-2, .cls-3 {
        stroke: #ed1c24;
        stroke-miterlimit: 10;
      }

      .cls-4 {
        fill: #8cd5eb;
      }

      .cls-5, .cls-3 {
        fill: none;
      }

      .cls-3 {
        stroke-width: 2px;
      }
    </style>
  </defs>
  <g>
    <g>
      <g>
        <path class="cls-4" d="m11.08,56.69c-4.46,0-8.08-3.63-8.08-8.08V11.08C3,6.63,6.63,3,11.08,3h64.52c4.46,0,8.08,3.63,8.08,8.08v21.2l-4.05,1.63-5.86-9.36-5.75,9.19-12.67-8.62,2.99,15.7-10.61,2.65,7.09,8.46-3.98,4.75H11.08Z"/>
        <path class="cls-1" d="m75.61,4c3.91,0,7.08,3.18,7.08,7.08v20.52l-2.65,1.07-4.57-7.3-1.7-2.71-1.7,2.71-4.35,6.96-9.82-6.68-3.99-2.71.9,4.74,2.36,12.4-8.14,2.04-3.1.78,2.05,2.45,5.53,6.6-3.14,3.74H11.08c-3.91,0-7.08-3.18-7.08-7.08V11.08c0-3.91,3.18-7.08,7.08-7.08h64.52m0-2H11.08C6.07,2,2,6.07,2,11.08v37.52c0,5.02,4.07,9.08,9.08,9.08h40.23l4.81-5.74-6.6-7.88,9.98-2.49-2.71-14.26,11.54,7.85,5.45-8.72,5.45,8.72,5.46-2.2V11.08c0-5.02-4.07-9.08-9.08-9.08h0Z"/>
      </g>
      <g>
        <path class="cls-5" d="m19.41,23.38c-1.33,0-2.42,1.08-2.42,2.42s1.08,2.42,2.42,2.42,2.42-1.08,2.42-2.42-1.08-2.42-2.42-2.42Z"/>
        <path class="cls-5" d="m28.6,24.08c2.36,5.6,1.98,10.42-1.17,14.73l.73.54c3.31-4.53,3.74-9.78,1.28-15.62l-.84.35Z"/>
        <path class="cls-1" d="m68.33,35.15l3.19-5.1c-.1-.36-.16-.72-.16-1.05.52-2.45,2-5.19,7.11-8.28.4-.24.21-.87-.26-.82-2.94.33-8.45,1.32-12.77,4.24-5.4-3.07-15.97-8.32-25.6-8.65-5.01-.17-8.86.49-11.02,1-1.01.15-17.2,2.69-21.83,13.46,3.78,7.82,14.47,11.53,19.37,12.87v.05s7.62,2.61,18.71.86c4.72-.74,9.86-3.05,14.22-5.47l-1.48-9.97,10.54,6.85Zm-48.91-6.94c-1.33,0-2.42-1.08-2.42-2.42s1.08-2.42,2.42-2.42,2.42,1.08,2.42,2.42-1.08,2.42-2.42,2.42Zm8.75,11.12l-.73-.54c3.15-4.31,3.54-9.13,1.17-14.73l.84-.35c2.46,5.84,2.03,11.09-1.28,15.62Z"/>
      </g>
    </g>
    <polygon class="cls-2" points="52.69 58.7 51.78 58.69 57.44 51.94 51.33 44.65 60.66 42.31 58.22 29.49 68.63 36.57 73.78 28.33 78.83 36.4 85.69 33.64 85.7 34.45 78.52 37.38 73.77 29.85 68.87 37.66 59.29 31.18 61.53 42.86 52.66 45.07 58.4 51.92 52.69 58.7"/>
  </g>
  <path class="cls-3" d="m51.78,58.69H11.08c-5.56,0-10.08-4.52-10.08-10.08V11.08C1,5.52,5.52,1,11.08,1h64.52c5.56,0,10.08,4.52,10.08,10.08v22.54l-6.86,2.77-5.05-8.07-5.16,8.24-10.4-7.07,2.44,12.82-9.34,2.34,6.12,7.3-5.65,6.74Z"/>
</svg>