<?xml version="1.0" encoding="UTF-8"?>
<svg id="Layer_1" data-name="Layer 1" xmlns="http://www.w3.org/2000/svg" viewBox="0 0 87.58 67.17">
  <defs>
    <style>
      .cls-1 {
        fill: #fff;
      }

      .cls-2 {
        fill: #ed1c24;
      }

      .cls-2, .cls-3 {
        stroke: #ed1c24;
        stroke-miterlimit: 10;
      }

      .cls-4 {
        fill: #8cd5eb;
      }

      .cls-5, .cls-3 {
        fill: none;
      }

      .cls-3 {
        stroke-width: 2px;
      }
    </style>
  </defs>
  <g>
    <g>
      <g>
        <path class="cls-4" d="m28.97,64.4c-3.65.68-7.16-1.74-7.84-5.38l-5.71-30.69c-.68-3.64,1.74-7.16,5.38-7.84l52.77-9.82c3.65-.68,7.16,1.74,7.84,5.38l3.23,17.34-3.06,1.95-6.22-6.76-3.3,8.39-11.67-5.12,4.83,12.39-8.27,3.78,7.09,5.84-2.53,4.49-32.52,6.05h0Z"/>
        <path class="cls-1" d="m73.73,11.48c3.2-.6,6.27,1.52,6.87,4.71l3.12,16.78-2,1.28-4.85-5.27-1.8-1.96-.98,2.48-2.5,6.35-9.05-3.97-3.68-1.61,1.46,3.74,3.82,9.78-6.35,2.91-2.42,1.11,2.05,1.69,5.53,4.56-2,3.54-32.13,5.98c-3.2.6-6.27-1.52-6.87-4.71l-5.71-30.69c-.6-3.2,1.52-6.27,4.71-6.87l52.77-9.82m-.3-1.64l-52.77,9.82c-4.1.76-6.81,4.71-6.04,8.81l5.71,30.69c.76,4.11,4.71,6.81,8.81,6.04l32.9-6.12,3.06-5.43-6.6-5.44,7.78-3.56-4.39-11.25,10.63,4.66,3.13-7.96,5.78,6.3,4.13-2.63-3.33-17.89c-.76-4.11-4.71-6.81-8.81-6.04h0Z"/>
      </g>
      <g>
        <path class="cls-5" d="m30.72,35.89c-1.09.2-1.81,1.25-1.61,2.35s1.25,1.81,2.35,1.61,1.81-1.25,1.61-2.35-1.25-1.81-2.35-1.61Z"/>
        <path class="cls-5" d="m38.34,35.06c2.78,4.22,3.21,8.22,1.28,12.23l.68.33c2.02-4.21,1.57-8.57-1.33-12.97l-.63.41Z"/>
        <path class="cls-1" d="m72.52,38.07l1.83-4.66c-.14-.28-.24-.56-.29-.83.05-2.08.85-4.55,4.56-7.85.29-.26.04-.74-.34-.63-2.35.72-6.71,2.37-9.8,5.41-4.88-1.69-14.33-4.37-22.25-3.18-4.12.62-7.17,1.75-8.86,2.49-.8.28-13.66,4.82-15.81,14.33,4.28,5.82,13.59,7.23,17.8,7.58v.04s6.64.98,15.44-2.14c3.75-1.32,7.6-3.99,10.8-6.64l-2.73-7.93,9.66,4h-.01Zm-41.06,1.78c-1.09.2-2.14-.52-2.35-1.61s.52-2.14,1.61-2.35,2.14.52,2.35,1.61-.52,2.14-1.61,2.35Zm8.85,7.76l-.68-.33c1.92-4,1.51-8.01-1.28-12.23l.63-.41c2.9,4.4,3.35,8.76,1.33,12.97Z"/>
      </g>
    </g>
    <polygon class="cls-2" points="63.31 59.71 62.57 59.84 66.17 53.46 60.06 48.42 67.34 45.09 63.39 34.98 72.98 39.18 75.94 31.66 81.3 37.49 86.49 34.19 86.62 34.85 81.19 38.34 76.16 32.9 73.34 40.04 64.52 36.2 68.13 45.41 61.21 48.57 66.95 53.29 63.31 59.71"/>
  </g>
  <path class="cls-3" d="m62.57,59.84l-33.29,6.19c-4.55.85-8.93-2.16-9.78-6.71l-5.71-30.69c-.85-4.55,2.16-8.93,6.71-9.78l52.77-9.82c4.55-.85,8.93,2.16,9.78,6.71l3.43,18.43-5.19,3.31-5.36-5.83-2.97,7.52-9.58-4.2,3.95,10.11-7.28,3.34,6.12,5.04s-3.6,6.37-3.6,6.37Z"/>
  <g>
    <g>
      <g>
        <path class="cls-4" d="m16.33,56.51c-3.65.68-7.16-1.74-7.84-5.38L2.78,20.43c-.68-3.64,1.74-7.16,5.38-7.84L60.93,2.78c3.65-.68,7.16,1.74,7.84,5.38l3.23,17.34-3.06,1.95-6.22-6.76-3.3,8.39-11.67-5.12,4.83,12.39-8.27,3.78,7.09,5.84-2.53,4.49-32.52,6.05h0Z"/>
        <path class="cls-1" d="m61.09,3.59c3.2-.6,6.27,1.52,6.87,4.71l3.12,16.78-2,1.28-4.85-5.27-1.8-1.96-.98,2.48-2.5,6.35-9.05-3.97-3.68-1.61,1.46,3.74,3.82,9.78-6.35,2.91-2.42,1.11,2.05,1.69,5.53,4.56-2,3.54-32.13,5.98c-3.2.6-6.27-1.52-6.87-4.71L3.6,20.28c-.6-3.2,1.52-6.27,4.71-6.87L61.08,3.6m-.3-1.64L8,11.78c-4.1.76-6.81,4.71-6.04,8.81l5.71,30.69c.76,4.11,4.71,6.81,8.81,6.04l32.9-6.12,3.06-5.43-6.6-5.44,7.78-3.56-4.39-11.25,10.63,4.66,3.13-7.96,5.78,6.3,4.13-2.63-3.33-17.89c-.76-4.11-4.71-6.81-8.81-6.04h0Z"/>
      </g>
      <g>
        <path class="cls-5" d="m18.07,28c-1.09.2-1.81,1.25-1.61,2.35s1.25,1.81,2.35,1.61,1.81-1.25,1.61-2.35-1.25-1.81-2.35-1.61Z"/>
        <path class="cls-5" d="m25.69,27.17c2.78,4.22,3.21,8.22,1.28,12.23l.68.33c2.02-4.21,1.57-8.57-1.33-12.97l-.63.41Z"/>
        <path class="cls-1" d="m59.87,30.18l1.83-4.66c-.14-.28-.24-.56-.29-.83.05-2.08.85-4.55,4.56-7.85.29-.26.04-.74-.34-.63-2.35.72-6.71,2.37-9.8,5.41-4.88-1.69-14.33-4.37-22.25-3.18-4.12.62-7.17,1.75-8.86,2.49-.8.28-13.66,4.82-15.81,14.33,4.28,5.82,13.59,7.23,17.8,7.58v.04s6.64.98,15.44-2.14c3.75-1.32,7.6-3.99,10.8-6.64l-2.73-7.93,9.66,4h-.01Zm-41.06,1.78c-1.09.2-2.14-.52-2.35-1.61s.52-2.14,1.61-2.35,2.14.52,2.35,1.61-.52,2.14-1.61,2.35Zm8.85,7.76l-.68-.33c1.92-4,1.51-8.01-1.28-12.23l.63-.41c2.9,4.4,3.35,8.76,1.33,12.97Z"/>
      </g>
    </g>
    <polygon class="cls-2" points="50.66 51.82 49.92 51.95 53.52 45.57 47.41 40.54 54.69 37.2 50.74 27.09 60.33 31.29 63.29 23.77 68.65 29.6 73.84 26.3 73.97 26.96 68.55 30.45 63.52 25.02 60.7 32.15 51.87 28.31 55.48 37.52 48.57 40.68 54.3 45.41 50.66 51.82"/>
  </g>
  <path class="cls-3" d="m49.92,51.95l-33.29,6.19c-4.55.85-8.93-2.16-9.78-6.71L1.14,20.74c-.85-4.55,2.16-8.93,6.71-9.78L60.62,1.14c4.55-.85,8.93,2.16,9.78,6.71l3.43,18.43-5.19,3.31-5.36-5.83-2.97,7.52-9.58-4.2,3.95,10.11-7.28,3.34,6.12,5.04s-3.6,6.37-3.6,6.37Z"/>
</svg>