<?xml version="1.0" encoding="UTF-8"?>
<svg id="Layer_1" data-name="Layer 1" xmlns="http://www.w3.org/2000/svg" viewBox="0 0 84.69 57.69">
  <defs>
    <style>
      .cls-1 {
        fill: #7cc3d6;
        stroke: #fff;
        stroke-miterlimit: 10;
        stroke-width: 2px;
      }
    </style>
  </defs>
  <rect class="cls-1" x="1" y="1" width="82.69" height="55.69" rx="9.08" ry="9.08"/>
  <g id="ImzbrB.tif">
    <path d="m27.75,15.07c-.18.63-.36,1.25-.53,1.89-.42,1.6-.74,3.22-1,4.85-.2,1.25-.35,2.51-.46,3.77-.06.7-.09,1.41-.13,2.12,0,.07,0,.14,0,.22h4.13c.01-.25.03-.48.04-.71.11-2.43.4-4.84.97-7.21.26-1.1.59-2.17,1.03-3.21.06-.13.13-.19.27-.22.46-.08.92-.17,1.38-.25.03,0,.07,0,.12,0-1.48,3.73-2.06,7.61-2.24,11.56.16.05,3.33.05,3.7,0,0-.03.02-.07.02-.11.04-.77.07-1.53.14-2.3.08-.9.19-1.8.31-2.7.15-1.13.37-2.25.65-3.36.26-1.06.58-2.11,1-3.12.03-.07.06-.13.09-.21.53-.02,1.04-.03,1.59-.05-1.48,3.81-2.04,7.78-2.22,11.84h3.85c.01-.16.02-.31.03-.46.07-.96.12-1.93.22-2.89.24-2.35.67-4.66,1.43-6.9.15-.43.32-.86.49-1.32.5.09.99.18,1.48.28-.02.06-.03.09-.04.12-.52,1.27-.88,2.6-1.18,3.94-.26,1.17-.45,2.36-.59,3.55-.09.82-.15,1.65-.22,2.47-.03.34-.04.68-.06,1.02,0,.05,0,.1,0,.17h3.7c.02-.26.03-.52.05-.77.15-2.37.49-4.71,1.16-6.99.24-.81.52-1.6.88-2.36.03-.06.06-.12.1-.21.48.17.97.33,1.45.5,0,.03,0,.05-.01.07-.57,1.2-.96,2.46-1.26,3.75-.28,1.19-.49,2.39-.6,3.61-.07.73-.12,1.46-.18,2.19,0,.06,0,.12,0,.18h3.86c.02-.29.04-.55.06-.81.18-2.07.54-4.1,1.32-6.03.22-.54.47-1.07.8-1.59.48.17.95.37,1.42.55,0,.03,0,.04,0,.05-.6.98-.99,2.05-1.3,3.15-.3,1.08-.49,2.17-.61,3.28-.04.41-.08.82-.11,1.24,0,.04,0,.09,0,.14h4.07c.02-.18.04-.34.06-.5.2-1.69.67-3.3,1.52-4.79.17-.31.38-.6.57-.89.01-.02.03-.04.05-.08.47.23.92.46,1.39.69-1.19,1.67-1.82,3.52-2.03,5.55h4.26c.12-1.35.73-2.42,1.83-3.22.43.24.87.49,1.34.75-.7.69-1.28,1.46-1.52,2.45h2.86c.03-.06.06-.11.08-.16,1.33-2.98,3.48-5.18,6.37-6.67,1.66-.86,3.42-1.41,5.27-1.69.33-.05.66-.08.99-.12.03,0,.05,0,.12,0-.09.07-.16.13-.22.17-1.17.87-2.3,1.8-3.36,2.82-.94.9-1.81,1.85-2.55,2.92-.6.85-1.1,1.75-1.41,2.75-.07.24-.13.48-.18.72-.08.4,0,.78.09,1.17.18.76.52,1.45.93,2.12.67,1.1,1.5,2.07,2.41,2.98,1.24,1.25,2.62,2.34,4.08,3.31.06.04.12.08.16.16-.19-.02-.39-.04-.58-.07-3.14-.5-6.01-1.65-8.48-3.7-1.63-1.35-2.86-3.01-3.73-4.94-.03-.07-.06-.13-.09-.19h-2.76c.23,1.01.76,1.83,1.5,2.55-.45.27-.89.54-1.33.8-.96-.92-1.49-2.05-1.74-3.35-1.46,0-2.91.02-4.39.02.03,1.1.23,2.14.57,3.16.34,1.03.81,1.98,1.48,2.87-.46.25-.9.5-1.36.75-.76-.97-1.3-2.05-1.67-3.2-.37-1.16-.56-2.34-.59-3.56h-4.08c0,.07-.02.12-.02.17.01,1.97.24,3.91.83,5.8.3.95.67,1.87,1.2,2.72.02.03.03.06.05.1-.47.21-.93.41-1.41.62-.04-.07-.08-.13-.12-.19-.62-1.04-1.06-2.17-1.38-3.33-.28-1.01-.47-2.04-.58-3.08-.1-.87-.14-1.74-.15-2.62,0-.05,0-.1,0-.16h-3.82c-.1,2.2.32,7.02,2.14,10.69-.48.19-.95.37-1.44.56-.03-.06-.06-.11-.09-.16-.62-1.27-1.05-2.61-1.39-3.98-.31-1.27-.53-2.56-.65-3.86-.1-1.01-.15-2.02-.15-3.04,0-.06,0-.12,0-.18-.16-.05-3.4-.05-3.71,0,0,2.05.17,4.09.53,6.12.37,2.02.9,4,1.74,5.91-.54.06-1.06.12-1.6.18-.03-.07-.07-.14-.1-.2-.58-1.32-.99-2.7-1.31-4.11-.3-1.29-.5-2.59-.64-3.91-.13-1.24-.19-2.49-.2-3.74,0-.09,0-.17,0-.26h-3.82c-.1.31.04,2.79.23,4.23.18,1.4.42,2.79.77,4.17.34,1.37.77,2.72,1.33,4.04-.24-.02-.46-.03-.68-.05-.25-.02-.49-.05-.74-.06-.14,0-.21-.05-.27-.18-.37-.85-.68-1.72-.94-2.61-.43-1.45-.73-2.92-.94-4.42-.23-1.64-.34-3.29-.35-4.95,0-.05,0-.09,0-.14-.14-.04-3.43-.03-3.7.01.04,4.09.68,8.07,2.27,11.9-.18-.04-.34-.07-.5-.1-.3-.06-.6-.13-.9-.18-.14-.02-.23-.09-.29-.23-.41-.89-.74-1.81-1.01-2.76-.38-1.32-.64-2.66-.82-4.01-.2-1.47-.28-2.95-.3-4.43,0-.06,0-.13-.01-.2h-4.12c0,.08-.01.13-.01.19,0,1.02.06,2.04.15,3.06.1,1.18.25,2.35.46,3.51.36,2.04.83,4.06,1.51,6.03.02.06.03.11.05.17h-.08s-.07-.04-.11-.04c-1.25-.27-2.49-.59-3.71-.96-2.94-.89-5.78-2-8.49-3.45-1.88-1-3.66-2.15-5.28-3.53-1.85-1.57-3.41-3.38-4.5-5.56-.02-.04-.07-.08-.1-.11,0-.03,0-.05,0-.08.04-.05.09-.1.11-.15.11-.21.2-.44.31-.65,1.02-2.02,2.44-3.74,4.13-5.23,1.55-1.37,3.26-2.5,5.09-3.46,3.77-1.98,7.78-3.27,11.97-4.05.18-.03.36-.08.54-.12.04,0,.08,0,.12,0Zm-8,8.59c0-.88-.72-1.59-1.6-1.58-.88,0-1.59.71-1.59,1.59,0,.88.7,1.59,1.58,1.59.88,0,1.6-.71,1.6-1.6Z"/>
  </g>
</svg>