<?xml version="1.0" encoding="UTF-8"?>
<svg id="Layer_1" data-name="Layer 1" xmlns="http://www.w3.org/2000/svg" viewBox="0 0 85.08 80.73">
  <defs>
    <style>
      .cls-1 {
        fill: #51c5d5;
      }

      .cls-2 {
        fill: #184068;
      }

      .cls-3 {
        fill: #2da4ba;
      }

      .cls-4 {
        fill: #12487e;
      }
    </style>
  </defs>
  <path class="cls-1" d="m38.06,31.98c6.64,1.16,13.48.93,20.24,1.56,3.74.6,9.18.27,11.25,4.52,1.46,4.74-4.6,8.06-7.59,10.34C42.42,60.75,21.34,72.07.03,80.73c0,0-.03-18.46-.03-18.46,20.18-6.25,25.22-7.71,45.39-16.71,20.59-9.73-14.59-8.62-11.7-17.53,0,0,4.36,3.95,4.36,3.95h0Z"/>
  <path class="cls-4" d="m85.08,0l-19.35,12.23s-28.28,16.17-14.66,18.14c9.03,1.21,19.77,1.81,18.7,9.62.11-.97-.19-1.87-.75-2.65-1.76-2.36-4.97-2.84-7.72-3.32-3.83-.55-7.74-.61-11.64-.7-3.93-.12-7.8,0-11.95-.75-1.05-.29-2.16-.41-3.41-1.64-2.69-3.65.53-7.04,2.86-8.92,7.01-6.11,10.17-8.94,12.78-11.28S59.68,0,59.68,0h25.39Z"/>
  <path class="cls-2" d="m40.7,33.56c6.29.57,12.53.46,18.84,1.03,2.4.27,4.92.51,7.14,1.65,5.32,2.88-.46,7.93-3.64,9.68,0,0-.03-.04-.03-.04,1.68-1.6,5.23-4.53,4.29-7.03-.78-1.08-2.17-1.51-3.43-1.93-2.93-.85-6.09-1.09-9.15-1.4-4.47-.55-9.83-.8-14.02-1.96h0Z"/>
  <path class="cls-3" d="m55.91,5.82c-5.74,7.6-14.18,12.79-19.86,20.39-2.68,4.85,7.8,6.06,10.86,6.41-2.25.18-4.77-.08-7.11-.46-2.46-.32-6.19-1.8-5.65-4.48.04-.98.52-1.55.87-2.13,1.14-1.62,2.56-2.96,3.99-4.28,5.63-5.1,11.97-9.86,16.9-15.45h0Z"/>
  <path class="cls-2" d="m55.06,36.59c3.12.24,6.26.47,9.28,1.41,1.31.39,2.23,1.5,1.55,2.86-2.17,3.66-6.07,5.78-9.5,8.09,1.95-1.45,9.83-6.93,8.74-9.46-.17-.29-.82-.47-1.12-.6-2.85-1.09-6.01-1.5-8.95-2.29h0Z"/>
  <path class="cls-3" d="m57.46,32.37c-3.95-.07-22.76.51-19.41-6.69.53-1,1.31-1.78,2.09-2.53-.67.84-1.32,1.73-1.68,2.7-2.14,5.75,15.45,6.01,19,6.52h0Z"/>
  <path class="cls-3" d="m54.64,17.83c-2.1,1.86-10.08,8.23-8.3,11.16.4.54,1.06.88,1.73,1.15-.7-.14-1.44-.35-2.02-.89-3.2-3.6,5.92-9.75,8.59-11.42h0Z"/>
  <path class="cls-3" d="m44.15,28.54c-2.59-6.35,12.09-14.74,16.65-17.6-1.64,1.34-3.39,2.55-5.07,3.82-3.33,2.73-12.89,9.03-11.58,13.78h0Z"/>
  <path class="cls-3" d="m54.85,11.19c-3.03,3.06-6.27,5.9-9.32,8.92-2.26,2.6-8.67,6.96-2.84,9.36-.52-.14-1.04-.32-1.52-.6-3.16-1.76-.13-5.3,1.54-7,3.67-3.94,7.91-7.39,12.14-10.67h0Z"/>
  <path class="cls-2" d="m27.66,54.83c6.06-2.83,12.31-5.23,18.37-8.03,3.19-1.54,12.29-5.62,5.67-8.98-1.45-.78-3.05-1.3-4.64-1.81,1.64.32,3.28.73,4.83,1.43,7.44,3.46-1.73,8.49-5.54,10.06-6.11,2.74-12.43,5.06-18.69,7.34h0Z"/>
  <path class="cls-2" d="m57.51,39.9c4.02,4.33-7.9,9.94-11,11.33-1.77.8-3.58,1.51-5.41,2.16,3.17-1.91,20.08-8.94,16.41-13.49h0Z"/>
</svg>