<?xml version="1.0" encoding="UTF-8"?>
<svg id="Layer_1" data-name="Layer 1" xmlns="http://www.w3.org/2000/svg" viewBox="0 0 773.61 1026.01">
  <defs>
    <style>
      .cls-1 {
        fill: #fff;
      }
    </style>
  </defs>
  <path d="m138.16,1024.43h-22.71l-.43,1.57.43-1.57c2.8-10.52,6.16-23.12,11.87-33.26,14.34-35.86,72.49-188.67,90.96-222.06,31.66-57.22,64.3-116.22,79.58-195.83.33-3.14.82-6.2,1.45-9.19,1-9.42.02-17.16-4.12-23.93-5.59-9.12-17.07-17.43-37.13-26.65-108.37-49.81-174.08-101.59-212.24-178.84C10.73,263.65-.55,171.69.02,40.23H.02c-.03-.39-.02-.78,0-1.15.04-7.64.11-15.41.23-23.33-.01-.3,0-.6.01-.89.03-2.15.07-4.32.11-6.49C.19,4.73,2.54,1.33,6.19.3c4.25-1.19,8.65,1.29,9.84,5.53,23.34,82.34,89.8,95.5,159.34,109.27,93.57,18.53,192.36,38.12,211.98,210.5,19.23-173.05,117.82-192.43,211.24-210.78,69.33-13.62,135.63-26.64,158.98-108.98,1.19-4.25,5.6-6.72,9.84-5.53,3.65,1.02,6,4.43,5.82,8.07.04,2.18.07,4.34.11,6.5.02.29.02.59.01.89.11,7.92.19,15.69.23,23.34.03.38.03.76,0,1.14.58,131.46-10.71,223.43-45.78,294.45-38.16,77.25-103.87,129.03-212.24,178.84-20.06,9.22-31.53,17.53-37.13,26.65-4.23,6.89-5.16,14.8-4.07,24.45.7,3.21,1.25,6.5,1.62,9.85,15.37,79.01,47.85,137.72,79.35,194.65,20.38,36.84,100.37,192.96,115.28,233.3,2.87,6.85,5.11,13.78,6.72,19.61l-22.32.4-516.85,1.99Z"/>
  <path class="cls-1" d="m655.01,1022.44s-65.56-152.39-87.12-191.64c-45.88-73.52-95.91-192.96-110.01-251.99-8.05-26.7-9.4-46.53-26.54-49.29s-32.7,13.82-44.55,14.37-24.72-16.92-45.01-11.61c-13.82,3.62-26.51,8.5-29.85,46.53-2.76,31.42-32.06,122.08-98.4,244.81-29.3,60.26-75.38,200.82-75.38,200.82h-22.71l-.43,1.57.43-1.57c2.8-10.52,6.16-23.12,11.87-33.26,14.34-35.86,72.49-188.67,90.96-222.06,31.66-57.22,64.3-116.22,79.58-195.83.33-3.14.82-6.2,1.45-9.19,1-9.42.02-17.16-4.12-23.93-5.59-9.12-17.07-17.43-37.13-26.65-108.37-49.81-174.08-101.59-212.24-178.84C10.73,263.65-.55,171.69.02,40.23H.02c-.03-.39-.02-.78,0-1.15.04-7.64.11-15.41.23-23.33-.01-.3,0-.6.01-.89.03-2.15.07-4.32.11-6.49C.19,4.73,2.54,1.33,6.19.3c4.25-1.19,8.65,1.29,9.84,5.53,23.34,82.34,89.8,95.5,159.34,109.27,93.57,18.53,192.36,38.12,211.98,210.5,19.23-173.05,117.82-192.43,211.24-210.78,69.33-13.62,135.63-26.64,158.98-108.98,1.19-4.25,5.6-6.72,9.84-5.53,3.65,1.02,6,4.43,5.82,8.07.04,2.18.07,4.34.11,6.5.02.29.02.59.01.89.11,7.92.19,15.69.23,23.34.03.38.03.76,0,1.14.58,131.46-10.71,223.43-45.78,294.45-38.16,77.25-103.87,129.03-212.24,178.84-20.06,9.22-31.53,17.53-37.13,26.65-4.23,6.89-5.16,14.8-4.07,24.45.7,3.21,1.25,6.5,1.62,9.85,15.37,79.01,47.85,137.72,79.35,194.65,20.38,36.84,100.37,192.96,115.28,233.3,2.87,6.85,5.11,13.78,6.72,19.61l-22.32.4ZM373.19,444.28h0c16.22-270.5-95.83-292.71-200.88-313.51-49.05-9.71-96.66-19.15-130.89-50.69-7.31-6.21-15.09-17.02-23.16-30.67-1.02,26.44-.84,56.72.1,89.44,4.82,78.54,17.28,139.21,41.75,188.75,36.32,73.54,99.69,123.21,204.55,171.41,23.15,10.64,36.8,20.89,44.13,32.84.78,1.27,1.48,2.55,2.12,3.84.93-1.41,1.91-2.76,2.91-4.05,5.44-7,11.9-12.35,18.87-15.55h.01c5.15-2.89,10.43-3.76,15.79-3.36,6.25.18,12.15,2.11,17.53,5.51h0s7.18-73.96,7.18-73.96m67.74,71.71c7.02,3.27,13.5,8.83,18.95,16.06.93,1.23,1.83,2.52,2.7,3.84h0c.66-1.36,1.41-2.72,2.23-4.06,7.32-11.95,20.98-22.2,44.13-32.84,104.86-48.2,168.23-97.87,204.55-171.41,24.47-49.53,36.93-110.21,41.75-188.75l1.72-84.05-24.72,25.27h0c-34.17,31.49-81.66,40.82-130.58,50.43-105.69,20.76-218.39,42.94-199.45,320.76l9.16,65.17c4.32-2.18,8.95-3.45,13.77-3.66h0c6.08.33,11.83.97,15.79,3.24Z"/>
</svg>