<?xml version="1.0" encoding="UTF-8"?>
<svg id="Layer_1" data-name="Layer 1" xmlns="http://www.w3.org/2000/svg" viewBox="0 0 70.73 78.53">
  <defs>
    <style>
      .cls-1 {
        stroke-width: 2px;
      }

      .cls-1, .cls-2 {
        fill: #fff;
        stroke: #231f20;
        stroke-miterlimit: 10;
      }

      .cls-3 {
        fill: #231f20;
      }
    </style>
  </defs>
  <g>
    <ellipse class="cls-3" cx="43.74" cy="16.77" rx="20.39" ry="16.77"/>
    <path class="cls-3" d="m50.89,29.28c-14.14-.79-20.82,6.88-21.16,15.31-.22,5.41,5.32,18.29,13.06,24.54l-.06.07c-18.46,0-33.43-15.29-33.43-34.16S23.99.08,42.46.08"/>
  </g>
  <path class="cls-1" d="m69.01,58.28c-9.3,17.63-31.13,24.37-48.76,15.07C2.63,64.05-4.12,42.22,5.18,24.59l5.09,14.5,9.98-3.96,3.44,9.63,12.04-3.96,4.3,10.19,12.39-3.31,4.99,11.35,11.6-.78Z"/>
  <circle class="cls-2" cx="50.13" cy="14.67" r="6.25"/>
  <circle class="cls-3" cx="50.13" cy="14.67" r="3.32"/>
</svg>