<?xml version="1.0" encoding="UTF-8"?>
<svg id="Layer_1" data-name="Layer 1" xmlns="http://www.w3.org/2000/svg" viewBox="0 0 524.29 554.55">
  <defs>
    <style>
      .cls-1 {
        fill: #b743dd;
        opacity: .7;
      }

      .cls-2 {
        fill: none;
        opacity: .53;
        stroke: #fff;
        stroke-miterlimit: 10;
        stroke-width: 2px;
      }

      .cls-3 {
        fill: #531773;
      }
    </style>
  </defs>
  <g>
    <path class="cls-3" d="m195.77,263.65c1.01-41.04-4.46-81.97-16.52-121.21-14.75-48-17.03-91.11,19.14-105.89,38.19-18.18,63.1,9.28,91.11,58.06,17.57,30.59,40.46,57.74,67.12,80.85,110.77,96.02,174.75,239,167.05,268.9-83.99-2.43-110.21,89.7-110.21,89.7,0,0-87.37-43.91-149.39,20.5-18.26-7.02-72.31-127.68-68.29-290.9Z"/>
    <path class="cls-1" d="m342.79,209.16c-10.73-5.32-18.48-3.29-21.11,8.39-4.58,36.95,17.87,115.92,60.49,218.46,13.65,31.92,25.71,59.26,36.4,82.64,10.83-22.44,37.88-65.79,88.04-74.21-4.3-12.07-9.07-24.64-14.32-37.67-38.63-95.78-116.14-181.07-149.5-197.61Z"/>
    <path class="cls-1" d="m248.73,248.52c-10.22-6.23-17.07-2.06-20.7,9.35-11.27,35.49-3.76,150.49,38.3,244.81,5.67,12.71,11.35,24.77,17,36.16,43.78-30.67,92.67-18.92,114.94-10.85-9.44-24.07-20.8-51.94-34.41-84.21-44.16-101.89-85.36-172.89-115.13-195.26Z"/>
    <path class="cls-1" d="m281.69,223.67c26.14-11.99,42.86-60.33,22.46-87.36l-47.81-68.48c-18.95-23.63-31.32-29.09-51.16-20.67h0c-19.84,8.42-24.93,22.18-20.67,51.16l15.72,87.46c7.52,38.74,55.32,49.88,81.46,37.89ZM206.99,50.86c18.74-7.96,43.17,7.35,54.56,34.19s5.44,55.05-13.31,63c-18.74,7.96-43.17-7.35-54.56-34.19s-5.44-55.05,13.31-63Z"/>
  </g>
  <path class="cls-2" d="m281.69,223.67c26.14-11.99,42.86-60.33,22.46-87.36l-47.81-68.48c-18.95-23.63-31.32-29.09-51.16-20.67h0c-19.84,8.42-24.93,22.18-20.67,51.16l15.72,87.46c7.52,38.74,55.32,49.88,81.46,37.89ZM206.99,50.86c18.74-7.96,43.17,7.35,54.56,34.19s5.44,55.05-13.31,63c-18.74,7.96-43.17-7.35-54.56-34.19s-5.44-55.05,13.31-63Z"/>
  <path class="cls-2" d="m248.73,248.52c-10.22-6.23-17.07-2.06-20.7,9.35-11.27,35.49-3.76,150.49,38.3,244.81,5.67,12.71,11.35,24.77,17,36.16,43.78-30.67,92.67-18.92,114.94-10.85-9.44-24.07-20.8-51.94-34.41-84.21-44.16-101.89-85.36-172.89-115.13-195.26Z"/>
  <g>
    <path class="cls-3" d="m16.96,224.18c9-40.05,11.62-81.26,7.45-122.1C19.31,52.13,25.49,9.4,63.85,1.96c41-10.38,60.07,21.41,78.03,74.72,11.26,33.43,28.42,64.53,50.05,92.39,89.91,115.79,124.76,268.5,111.36,296.33-81.91-18.77-125.6,66.46-125.6,66.46,0,0-77.13-60.11-150.52-9.05-16.54-10.45-46.01-139.34-10.21-298.63Z"/>
    <path class="cls-1" d="m171.78,199.42c-9.48-7.31-17.49-6.83-22.34,4.11-11.71,35.35-5.1,117.17,16.69,226.06,7.16,33.97,13.65,63.14,19.57,88.15,15-19.9,49.99-57.13,100.83-55.61-1.86-12.68-4.08-25.94-6.69-39.74-19.2-101.48-78.57-200.25-108.06-222.99Z"/>
    <path class="cls-1" d="m71.86,219.67c-8.81-8.11-16.34-5.35-22.13,5.13-17.98,32.61-33.06,146.86-10.21,247.58,3.08,13.58,6.29,26.51,9.61,38.78,48.92-21.53,94.58-.48,114.84,11.79-4.56-25.45-10.27-55-17.31-89.31-23.42-108.55-49.98-186.22-74.81-213.97Z"/>
    <path class="cls-1" d="m109.03,201.73c27.98-6.66,53.81-50.8,39.08-81.3l-33.52-76.5c-13.98-26.88-25.05-34.64-46.14-30.26h0c-21.1,4.39-28.78,16.89-30.26,46.14l-1.65,88.85c-.18,39.47,44.52,59.72,72.5,53.06ZM69.48,17.67c19.93-4.15,40.91,15.64,46.84,44.18s-5.41,55.05-25.34,59.2c-19.93,4.15-40.91-15.64-46.84-44.18-5.94-28.55,5.41-55.05,25.34-59.2Z"/>
  </g>
  <path class="cls-2" d="m342.79,209.16c-10.73-5.32-18.48-3.29-21.11,8.39-4.58,36.95,17.87,115.92,60.49,218.46,13.65,31.92,25.71,59.26,36.4,82.64,10.83-22.44,37.88-65.79,88.04-74.21-4.3-12.07-9.07-24.64-14.32-37.67-38.63-95.78-116.14-181.07-149.5-197.61Z"/>
  <path class="cls-2" d="m171.78,199.42c-9.48-7.31-17.49-6.83-22.34,4.11-11.71,35.35-5.1,117.17,16.69,226.06,7.16,33.97,13.65,63.14,19.57,88.15,15-19.9,49.99-57.13,100.83-55.61-1.86-12.68-4.08-25.94-6.69-39.74-19.2-101.48-78.57-200.25-108.06-222.99Z"/>
  <path class="cls-2" d="m71.86,219.67c-8.81-8.11-16.34-5.35-22.13,5.13-17.98,32.61-33.06,146.86-10.21,247.58,3.08,13.58,6.29,26.51,9.61,38.78,48.92-21.53,94.58-.48,114.84,11.79-4.56-25.45-10.27-55-17.31-89.31-23.42-108.55-49.98-186.22-74.81-213.97Z"/>
  <path class="cls-2" d="m109.03,201.73c27.98-6.66,53.81-50.8,39.08-81.3l-33.52-76.5c-13.98-26.88-25.05-34.64-46.14-30.26h0c-21.1,4.39-28.78,16.89-30.26,46.14l-1.65,88.85c-.18,39.47,44.52,59.72,72.5,53.06ZM69.48,17.67c19.93-4.15,40.91,15.64,46.84,44.18s-5.41,55.05-25.34,59.2c-19.93,4.15-40.91-15.64-46.84-44.18-5.94-28.55,5.41-55.05,25.34-59.2Z"/>
</svg>