<?xml version="1.0" encoding="UTF-8"?>
<svg id="Layer_1" data-name="Layer 1" xmlns="http://www.w3.org/2000/svg" viewBox="0 0 713.64 514.78">
  <defs>
    <style>
      .cls-1 {
        fill: #fff;
      }

      .cls-2 {
        fill: #1a3a7d;
      }

      .cls-3 {
        fill: none;
        stroke: #fff;
        stroke-miterlimit: 10;
        stroke-width: 8px;
      }
    </style>
  </defs>
  <g>
    <path class="cls-2" d="m366.03,234.38c-4-40.85-14.42-80.81-31.17-118.29-20.48-45.84-28-88.35,6.1-107.44,35.69-22.7,63.76,1.52,97.5,46.52,21.16,28.22,47.2,52.38,76.47,72.06,121.65,81.81,202.58,215.92,198.57,246.53-106.86-8.18-196.3,40.61-244.24,141.01-18.98-4.74-87.34-117.91-103.23-280.41Z"/>
    <path class="cls-1" d="m508.21,408.3c-4.93-20.58-10-41.3-16.23-61.51-16.11-53.16-39.96-103.85-68.32-151.52-2.81-4.55-9.67-15.61-12.53-20.24,0,0,6.77-4.26,6.77-4.26l8.23,13.74c32.71,54.99,58.92,114.24,75.13,176.2,4.1,15.28,7.65,31.22,11.13,46.59,0,0-4.2,1-4.2,1h0Z"/>
    <path class="cls-1" d="m610.78,348.81c-69.53-51.26-116.65-125.44-159.91-198.79,0,0,6.93-4,6.93-4,31.64,55.14,64.43,110.53,108.33,156.91,14.58,15.38,30.35,29.63,47.11,42.65l-2.46,3.23h0Z"/>
    <path class="cls-1" d="m605.16,227.49c-34.61-41.13-76.7-75.63-121.18-105.56-6.36-4.25-12.85-8.42-19.31-12.32l4.18-6.82c46.6,31.15,89.98,67.69,126.56,110.24,2.67,3.2,8.26,10.24,10.93,13.51,0,0-1.18.94-1.18.94h0Z"/>
    <path class="cls-1" d="m401.11,347.87c-12.53-49.35-24.6-99.48-29.42-150.26-.59-7.46-1.14-14.99-.73-22.48,0,0,7.95.86,7.95.86-.94,14.15.41,28.61,1.75,42.71,3.77,36.03,10.48,71.88,17.94,107.33,0,0,4.66,21.31,4.66,21.31l-2.16.53h0Z"/>
    <path class="cls-3" d="m348.99,18.35h0c18.66-10.77,31.6-6.87,53.3,14.28l55.8,62.15c23.54,24.35,2.07,52.86-22.42,67.95s-62.51,31.35-74.7-6.19l-26.26-84.89c-7.76-28.24-4.38-42.52,14.28-53.3Z"/>
  </g>
  <g>
    <path class="cls-2" d="m191.54,143.38c33.38-23.89,62.78-52.9,86.86-86.14,29.46-40.66,62.51-68.43,96.09-48.44,37.5,19.56,30.56,55.97,8.46,107.7-13.86,32.44-21.76,67.06-24.17,102.26-10.02,146.26-85.7,283.4-114.22,295.24C198.2,417.37,111.24,364.31.31,372.99c-5.39-18.81,58.45-134.59,191.22-229.6Z"/>
    <path class="cls-1" d="m112,353.48c15.35-14.56,30.77-29.31,45.16-44.81,37.98-40.53,69.96-86.53,97.06-134.93,2.54-4.71,8.69-16.18,11.26-20.97,0,0,7.07,3.74,7.07,3.74l-7.78,14c-31.27,55.83-69.47,108.15-115.03,153.17-11.18,11.19-23.21,22.23-34.78,32.94,0,0-2.96-3.13-2.96-3.13h0Z"/>
    <path class="cls-1" d="m214.82,412.56c9.62-85.84,50.31-163.74,92.2-237.88,0,0,6.93,4,6.93,4-31.93,54.97-63.5,111.06-81.73,172.27-6.03,20.32-10.48,41.1-13.38,62.13l-4.02-.52h0Z"/>
    <path class="cls-1" d="m317.07,347.04c18.31-50.54,27.14-104.24,30.83-157.73.5-7.63.87-15.34,1.01-22.88l8,.21c-3.68,55.93-13.64,111.77-32.19,164.72-1.44,3.92-4.74,12.27-6.24,16.22,0,0-1.4-.55-1.4-.55h0Z"/>
    <path class="cls-1" d="m110.79,230.51c36.48-35.53,73.86-71.04,115.42-100.61,6.16-4.24,12.41-8.48,19.11-11.87,0,0,3.23,7.32,3.23,7.32-12.73,6.26-24.57,14.66-36.11,22.87-29.32,21.28-57.01,45.02-83.98,69.2,0,0-16.12,14.69-16.12,14.69l-1.54-1.61h0Z"/>
    <path class="cls-3" d="m370.1,20.61h0c18.66,10.77,21.75,23.94,14.28,53.3l-25.92,79.4c-9.31,32.56-44.75,28.22-70.05,14.56-25.31-13.66-58.41-38.46-31.99-67.79l60.39-65.19c20.58-20.84,34.64-25.06,53.3-14.28Z"/>
  </g>
</svg>