<?xml version="1.0" encoding="UTF-8"?>
<svg id="Layer_1" data-name="Layer 1" xmlns="http://www.w3.org/2000/svg" viewBox="0 0 500.72 536.27">
  <defs>
    <style>
      .cls-1 {
        fill: #fff;
      }

      .cls-2, .cls-3 {
        fill: #166d3c;
      }

      .cls-3 {
        stroke: #fff;
        stroke-miterlimit: 10;
      }
    </style>
  </defs>
  <g>
    <path class="cls-3" d="m271.62,95.58c-1.49-46.31,6.94-85.25,42.73-89.64,38.41-6.93,53.93,23.56,67.03,73.79,8.22,31.5,149.24,268.56,112.85,425.54-44.19-22.14-108.8,19.71-108.8,19.71,0,0-74.46-24.08-112.49,10.45-62.46-142.14-.11-401.99-1.32-439.85Z"/>
    <g>
      <path class="cls-2" d="m278.35,121.92c-8.48-62.18-4.47-112.27,36.52-119.66,40.98-7.39,58.73,43.34,67.21,105.52,8.48,62.18-7.87,115.76-36.52,119.66s-58.73-43.34-67.21-105.52Z"/>
      <path class="cls-1" d="m274.23,122.48c-3.55-33.37-8.37-93.19,22.75-114.63,10.84-7.27,25.7-10.11,38.15-5.86,33.58,11.86,44.66,70.08,50.39,101.35,6.4,35.81,7.44,91.22-18.86,119.82-14.97,15.7-35.35,13.99-50.91.05-26.5-23.92-37.24-66.49-41.52-100.72h0Zm8.24-1.12c5.32,31.76,16.47,65.98,39.09,89.18,31.3,30,49.71-11.52,54.57-39.45,6.24-33.01,2.66-67.31-3.86-100.07-4.99-22.82-14.3-56.8-38.27-65.83-11.55-4.22-25.24-1.65-35.35,5.1-9.2,6.35-14.65,16.64-17.54,27.26-6.81,27.44-2.59,56.19,1.36,83.81h0Z"/>
    </g>
    <polygon class="cls-1" points="412.07 441.02 363.16 237.82 375.48 235.16 415 440.38 412.07 441.02 412.07 441.02"/>
    <polygon class="cls-1" points="332.46 243.41 339.43 446.81 336.43 447 318.08 244.31 332.46 243.41 332.46 243.41"/>
    <path class="cls-1" d="m375.05,107.92c-2.76,35.73-54.24,48.61-78.01,24.76-3.36-3.35-6.05-7.33-7.64-11.64l2.56-1.57c5.84,6.18,12.73,10.26,20.21,12.47,22.46,6.49,50.3-1.8,59.97-24.68,0,0,2.92.67,2.92.67h0Z"/>
  </g>
  <g>
    <path class="cls-3" d="m99.39,85.32C107.96,39.79,124.61,3.6,160.5,7.06c39,1.55,47.55,34.68,49.47,86.55,1.21,32.53,87.58,294.5,18.06,439.88-38.35-31.18-110.49-4.31-110.49-4.31,0,0-67.48-39.62-112.08-14.15C-24.74,362.74,92.38,122.55,99.39,85.32Z"/>
    <g>
      <path class="cls-2" d="m100.26,112.49C105.44,49.94,120.2,1.91,161.81,3.57s47.96,55.03,42.78,117.57c-5.19,62.54-32.74,111.31-61.55,108.92-28.81-2.39-47.96-55.03-42.78-117.57Z"/>
      <path class="cls-1" d="m96.11,112.14c3.76-33.35,12-92.79,47.02-106.99,12.15-4.75,27.27-4.3,38.52,2.54,23.04,14.48,26.4,50.54,27.57,75.34,1.1,40.43-1.69,82.46-20.9,119.14-5.87,10.89-13.13,21.1-23.76,28.26-17.08,11.47-35.89,6.68-48.27-9.07-22.1-28.8-23.48-74.44-20.18-109.23h0Zm8.29.69c-1.68,32.16,1.8,67.98,18.86,95.53,24.06,36.07,51.03-.48,61.82-26.7,13.23-30.88,17.17-65.14,17.89-98.54.06-23.96-1.73-60.34-24.84-73.62-10.18-5.52-23.15-5.8-33.89-1.61-10.35,4.21-17.91,13.07-23.02,22.82-12.59,25.31-14.69,54.3-16.82,82.12h0Z"/>
    </g>
    <polygon class="cls-1" points="161.73 452.96 157.97 244 170.57 244.07 164.73 452.98 161.73 452.96 161.73 452.96"/>
    <polygon class="cls-1" points="126.79 242.81 89.56 442.9 86.59 442.44 112.56 240.57 126.79 242.81 126.79 242.81"/>
    <path class="cls-1" d="m197.7,119.75c-10.42,34.29-63.48,35.72-81.52,7.28-2.56-4-4.32-8.47-4.94-13.02l2.84-.98c4.36,7.3,10.21,12.77,17.03,16.54,20.52,11.2,49.5,9.13,63.89-11.12,0,0,2.71,1.29,2.71,1.29h0Z"/>
  </g>
</svg>