<svg xmlns="http://www.w3.org/2000/svg" xmlns:xlink="http://www.w3.org/1999/xlink" xmlns:inkscape="http://www.inkscape.org/namespaces/inkscape" version="1.1" width="93.8623" height="64.4993" viewBox="0 0 93.8623 64.4993">
<defs>
<clipPath id="clip_1">
<path transform="matrix(1,0,0,-1,0,64.4993)" d="M0 64.499H93.862V0H0Z"/>
</clipPath>
<clipPath id="clip_2">
<path transform="matrix(1,0,0,-1,0,64.4993)" d="M0 33.898H30.57V64.5H0Z"/>
</clipPath>
</defs>
<g inkscape:groupmode="layer" inkscape:label="Layer 1">
<g clip-path="url(#clip_1)">
<path transform="matrix(1,0,0,-1,83.542,63.444398)" d="M0 0C5.017 0 9.084 4.067 9.084 9.084V46.603C9.084 51.62 5.017 55.687 0 55.687H-64.522C-69.539 55.687-73.606 51.62-73.606 46.603V9.084C-73.606 4.067-69.539 0-64.522 0Z" fill="#8bd5ec"/>
<path transform="matrix(1,0,0,-1,83.542,63.444398)" stroke-width="2" stroke-linecap="butt" stroke-miterlimit="10" stroke-linejoin="miter" fill="none" stroke="#ffffff" d="M0 0C5.017 0 9.084 4.067 9.084 9.084V46.603C9.084 51.62 5.017 55.687 0 55.687H-64.522C-69.539 55.687-73.606 51.62-73.606 46.603V9.084C-73.606 4.067-69.539 0-64.522 0H0Z"/>
<path transform="matrix(1,0,0,-1,36.332,45.3471)" d="M0 0-.733 .535C2.42 4.848 2.804 9.666 .44 15.267L1.276 15.62C3.74 9.783 3.31 4.528 0 0M-8.748 11.125C-10.083 11.125-11.165 12.207-11.165 13.542-11.165 14.877-10.083 15.959-8.748 15.959-7.413 15.959-6.331 14.877-6.331 13.542-6.331 12.207-7.413 11.125-8.748 11.125M50.044 19.436C47.104 19.107 41.591 18.114 37.273 15.191 31.873 18.259 21.304 23.507 11.669 23.842 6.656 24.016 2.805 23.352 .647 22.839-.365 22.691-16.549 20.15-21.186 9.376-17.402 1.557-6.72-2.159-1.82-3.491L-1.822-3.543C-1.822-3.543 5.801-6.148 16.893-4.399 24.338-3.225 32.856 1.856 37.657 5.073 41.386 2.696 45.871 1.611 48.847 1.132 49.505 1.026 49.854 1.895 49.302 2.269 45.514 4.831 43.209 8.068 43.198 10.338 43.719 12.789 45.196 15.526 50.309 18.621 50.714 18.866 50.515 19.489 50.044 19.436" fill="#ffffff"/>
</g>
<g clip-path="url(#clip_2)">
<path transform="matrix(1,0,0,-1,27.872,15.243599)" stroke-width="4.189" stroke-linecap="butt" stroke-miterlimit="10" stroke-linejoin="miter" fill="none" stroke="#6d6e71" d="M0 0C0-6.993-5.667-12.66-12.66-12.66-19.653-12.66-25.32-6.993-25.32 0-25.32 6.993-19.653 12.66-12.66 12.66-5.667 12.66 0 6.993 0 0Z"/>
<path transform="matrix(1,0,0,-1,5.3951,6.3062975)" stroke-width="4.189" stroke-linecap="butt" stroke-miterlimit="10" stroke-linejoin="miter" fill="none" stroke="#6d6e71" d="M0 0 18.767-18.767"/>
</g>
</g>
</svg>
