<svg xmlns="http://www.w3.org/2000/svg" xmlns:xlink="http://www.w3.org/1999/xlink" xmlns:inkscape="http://www.inkscape.org/namespaces/inkscape" version="1.1" width="102.047" height="102.047" viewBox="0 0 102.047 102.047">
<defs>
<clipPath id="clip_1">
<path transform="matrix(1,0,0,-1,0,102.047)" d="M0 102.047H102.047V0H0Z"/>
</clipPath>
</defs>
<g inkscape:groupmode="layer" inkscape:label="Layer 1">
<g clip-path="url(#clip_1)">
<path transform="matrix(1,0,0,-1,86.1061,57.219099)" d="M0 0C.003 .041 .006 .083 .009 .124 1.116 .451-.34-.222 0 0M-70.522 9.338C-70.842 9.359-70.626 9.469-70.522 9.338M-3.283 .731C-3.166 .693-3.042 .653-2.906 .608-3.047 .528-3.188 .457-3.328 .375-3.312 .493-3.297 .611-3.283 .731M-51.344 19.274C-51.337 19.238-51.324 19.209-51.317 19.173-51.302 19.073-51.305 19.068-51.344 19.274M-50.948 6.736C-51.039 6.786-51.123 6.892-51.197 7.086-51.157 6.98-51.051 6.857-50.948 6.736M-17.816 4.202C-17.599 4.189-17.472 4.148-17.816 4.202M-48.019 18.981C-48.251 18.763-48.207 18.915-48.019 18.981M-47.959 19.034C-47.971 19.021-47.971 19.024-47.982 19.013-48.012 19.016-48.038 19.017-48.065 19.019-47.826 19.212-47.596 19.415-47.959 19.034M-51.546 20.48C-51.545 20.605-51.53 20.621-51.546 20.48" fill="#196e38"/>
<path transform="matrix(1,0,0,-1,45.9305,42.702997)" d="M0 0C0-.001-.001-.002-.001-.004-.004-.008-.009-.011-.012-.015-.013-.015-.013-.016-.014-.016-.007-.007-.006-.008 0 0M24.487-15.934C24.436-15.901 24.38-15.878 24.33-15.842 24.435-15.92 24.454-15.921 24.487-15.933V-15.934M46.047-11.696C44.943-9.983 42.827-9.392 41.02-10.378 40.66-10.574 38.99-11.696 39.058-11.005 39.189-10.041 39.191-9.186 38.673-8.301 38.227-7.538 37.354-6.812 36.478-6.612 34.489-6.159 32.56-7.211 31.958-9.178 31.45-10.835 31.004-12.538 30.407-14.168 30.404-14.174 30.402-14.178 30.398-14.184 28.812-19.55 22.412-18.075 24.206-13.31 24.472-12.555 24.753-11.807 25.06-11.077 27.78-4.6 32.188 .956 37.69 5.287 39.77 6.926 39.405 10.501 37.69 12.216 35.635 14.27 32.847 13.858 30.761 12.216 29.798 11.457 28.878 10.654 27.986 9.826 27.63 9.709 27.168 10.133 27.07 11.769 27.08 11.59 27.011 13.265 26.312 14.171 25.608 15.081 24.594 15.613 23.426 15.619 21.978 15.626 20.733 15.255 19.442 14.64 18.058 13.981 17.269 11.926 17.753 10.491 18.611 7.949 19.658 5.377 20.118 2.72 20.39-3.035 17.203-6.581 16.084-7.399 15.003-8.691 6.526-6.858 9.575-2.187 11.088-.29 14.222 2.539 13.974 2.348 14.413 2.684 14.882 2.99 15.272 3.383 16.011 4.125 16.519 5.213 16.5 6.275 16.468 8.019 15.45 9.325 13.995 10.167 12.591 10.979 11.008 11.582 9.403 11.834 5.96 12.411 3.515 10.576 3.029 8.899 2.626 7.511 2.115 4.898 1.749 2.972 .743-2.311-3.125-1.304-3.241 3.034-3.265 3.935-3.448 6.662-3.077 8.979-2.65 11.647-2.168 14.337-2.329 17.049-2.416 18.526-3.397 20.325-5.026 20.592-5.972 20.748-6.918 20.903-7.864 21.059-9.197 21.278-10.438 21.115-11.439 20.114-12.368 19.185-12.729 17.805-12.384 16.539-11.837 14.53-11.47 11.733-11.47 11.733-10.549 8.59-12.621 5.263-14.719 9.327-16.02 11.848-19.536 13.572-21.748 14.193-27.834 15.904-32.597 7.942-26.693 5.733-19.341 2.981-20.224 .298-23.755-.224-27.287-.745-30.614-1.36-33.876-2.285-35.785-2.826-36.971-4.881-36.442-6.805-35.868-8.892-33.713-10.243-31.922-9.371-28.384-7.65-15.524-5.694-10.088-8.591-4.19-11.041-10.335-14.925-13.361-14.939-14.659-15.077-15.952-15.254-17.232-15.497-19.183-15.866-20.293-18.215-19.798-20.017-19.227-22.096-17.243-22.907-15.278-22.583-13.068-22.164-2.127-21.682 3.97-23.705 7.045-25.081 10.744-28.924 6.473-33.096 4.963-34.843 6.332-37.925 8.669-38.493 12.705-39.475 19.049-39.042 22.561-37.796 24.116-37.219 25.381-35.753 25.275-34.071 25.43-32.711 21.695-28.953 26.21-26.132 28.093-25.11 40.836-18.848 44.729-16.723 46.418-15.802 47.1-13.33 46.047-11.696" fill="#196e38"/>
<path transform="matrix(1,0,0,-1,45.9305,42.702997)" stroke-width=".5" stroke-linecap="butt" stroke-miterlimit="10" stroke-linejoin="miter" fill="none" stroke="#ffffff" d="M0 0C0-.001-.001-.002-.001-.004-.004-.008-.009-.011-.012-.015-.013-.015-.013-.016-.014-.016-.007-.007-.006-.008 0 0ZM24.487-15.934C24.436-15.901 24.38-15.878 24.33-15.842 24.435-15.92 24.454-15.921 24.487-15.933V-15.934ZM46.047-11.696C44.943-9.983 42.827-9.392 41.02-10.378 40.66-10.574 38.99-11.696 39.058-11.005 39.189-10.041 39.191-9.186 38.673-8.301 38.227-7.538 37.354-6.812 36.478-6.612 34.489-6.159 32.56-7.211 31.958-9.178 31.45-10.835 31.004-12.538 30.407-14.168 30.404-14.174 30.402-14.178 30.398-14.184 28.812-19.55 22.412-18.075 24.206-13.31 24.472-12.555 24.753-11.807 25.06-11.077 27.78-4.6 32.188 .956 37.69 5.287 39.77 6.926 39.405 10.501 37.69 12.216 35.635 14.27 32.847 13.858 30.761 12.216 29.798 11.457 28.878 10.654 27.986 9.826 27.63 9.709 27.168 10.133 27.07 11.769 27.08 11.59 27.011 13.265 26.312 14.171 25.608 15.081 24.594 15.613 23.426 15.619 21.978 15.626 20.733 15.255 19.442 14.64 18.058 13.981 17.269 11.926 17.753 10.491 18.611 7.949 19.658 5.377 20.118 2.72 20.39-3.035 17.203-6.581 16.084-7.399 15.003-8.691 6.526-6.858 9.575-2.187 11.088-.29 14.222 2.539 13.974 2.348 14.413 2.684 14.882 2.99 15.272 3.383 16.011 4.125 16.519 5.213 16.5 6.275 16.468 8.019 15.45 9.325 13.995 10.167 12.591 10.979 11.008 11.582 9.403 11.834 5.96 12.411 3.515 10.576 3.029 8.899 2.626 7.511 2.115 4.898 1.749 2.972 .743-2.311-3.125-1.304-3.241 3.034-3.265 3.935-3.448 6.662-3.077 8.979-2.65 11.647-2.168 14.337-2.329 17.049-2.416 18.526-3.397 20.325-5.026 20.592-5.972 20.748-6.918 20.903-7.864 21.059-9.197 21.278-10.438 21.115-11.439 20.114-12.368 19.185-12.729 17.805-12.384 16.539-11.837 14.53-11.47 11.733-11.47 11.733-10.549 8.59-12.621 5.263-14.719 9.327-16.02 11.848-19.536 13.572-21.748 14.193-27.834 15.904-32.597 7.942-26.693 5.733-19.341 2.981-20.224 .298-23.755-.224-27.287-.745-30.614-1.36-33.876-2.285-35.785-2.826-36.971-4.881-36.442-6.805-35.868-8.892-33.713-10.243-31.922-9.371-28.384-7.65-15.524-5.694-10.088-8.591-4.19-11.041-10.335-14.925-13.361-14.939-14.659-15.077-15.952-15.254-17.232-15.497-19.183-15.866-20.293-18.215-19.798-20.017-19.227-22.096-17.243-22.907-15.278-22.583-13.068-22.164-2.127-21.682 3.97-23.705 7.045-25.081 10.744-28.924 6.473-33.096 4.963-34.843 6.332-37.925 8.669-38.493 12.705-39.475 19.049-39.042 22.561-37.796 24.116-37.219 25.381-35.753 25.275-34.071 25.43-32.711 21.695-28.953 26.21-26.132 28.093-25.11 40.836-18.848 44.729-16.723 46.418-15.802 47.1-13.33 46.047-11.696Z"/>
</g>
</g>
</svg>
