<?xml version="1.0" encoding="UTF-8"?>
<svg id="Layer_1" data-name="Layer 1" xmlns="http://www.w3.org/2000/svg" viewBox="0 0 73.56 73.56">
  <defs>
    <style>
      .cls-1 {
        fill: #fff;
      }

      .cls-2 {
        fill: #2b3990;
      }
    </style>
  </defs>
  <g>
    <path class="cls-2" d="m36.78,73.06C16.77,73.06.5,56.78.5,36.78S16.77.5,36.78.5s36.28,16.27,36.28,36.28-16.27,36.28-36.28,36.28Z"/>
    <path class="cls-2" d="m36.78,1c19.76,0,35.78,16.02,35.78,35.78s-16.02,35.78-35.78,35.78S1,56.54,1,36.78,17.02,1,36.78,1m0-1C16.5,0,0,16.5,0,36.78s16.5,36.78,36.78,36.78,36.78-16.5,36.78-36.78S57.06,0,36.78,0h0Z"/>
  </g>
  <path class="cls-1" d="m23.1,36.76c0-16.75,12.23-30.6,28.12-32.89-4.48-2.06-9.45-3.21-14.68-3.21C16.87.66.93,16.83.93,36.76s15.94,36.1,35.61,36.1c5.24,0,10.21-1.16,14.68-3.21-15.9-2.29-28.12-16.14-28.12-32.89Z"/>
</svg>