<?xml version="1.0" encoding="UTF-8"?>
<svg id="Layer_1" data-name="Layer 1" xmlns="http://www.w3.org/2000/svg" viewBox="0 0 66.43 83.12">
  <defs>
    <style>
      .cls-1 {
        fill: #fff;
      }

      .cls-1, .cls-2 {
        stroke: #231f20;
        stroke-miterlimit: 10;
        stroke-width: 2px;
      }

      .cls-3 {
        fill: #cd2e27;
      }

      .cls-2 {
        fill: none;
      }
    </style>
  </defs>
  <path class="cls-1" d="m27.74,81.77c-2.78-2.18-3.9-5.57-8-19.23-1.99-6.62-4.35-15.13-6.64-21.16-2.57-4.99-7.24-5.37-9.06-9.67-2.32-5.49-1.75-17.67-1.75-17.67,0,0-4.66-6.72,3.77-11.89,11.53-4.67,19.67,6.46,27.05,5.64,7.81-.98,12.43-3.91,17.57-4.59,7.4-.98,10.68.31,11.61.88,2.21,1.36,3.92,4.71,2.76,10.37,1.04,25.94-10.86,19.39-15.05,28.96-1.66,4.29-8.39,21.86-8.39,21.86,0,0-9.76,19.71-13.86,16.49Z"/>
  <path class="cls-3" d="m31.3,61.81c-3.54.34-9.16-8.92-12.64-12.96-3.13-3.63-2.6-2.93-2.6-2.93,1.93,6.13,2.25,7.32,4.24,13.94,4.11,13.66,4.59,17.25,7.43,20.58s10.96-11.72,12.64-15.5,4.4-10.16,5.67-14.82c0,0-.12-.04-2.6,2.27-3.3,3.07-8.3,9.06-12.14,9.43Z"/>
  <path class="cls-2" d="m1.77,13.22s1.33,4.06,14.91,7.12c20.78,6.57,21.11.49,33.64.16,13.85-1.32,14.73-6.05,14.73-6.05"/>
  <path class="cls-1" d="m18.18,41.37c-2.83,1.77-5.08,0-6.26-1.9"/>
  <path class="cls-2" d="m52.2,40.04s-2.02,2.39-3.91,1.99c-1.47-.31-2.4-1.16-2.4-1.16"/>
</svg>