<svg xmlns="http://www.w3.org/2000/svg" xmlns:xlink="http://www.w3.org/1999/xlink" xmlns:inkscape="http://www.inkscape.org/namespaces/inkscape" version="1.1" width="102.047" height="102.047" viewBox="0 0 102.047 102.047">
<defs>
<clipPath id="clip_1">
<path transform="matrix(1,0,0,-1,0,102.047)" d="M0 102.047H102.047V0H0Z"/>
</clipPath>
</defs>
<g inkscape:groupmode="layer" inkscape:label="Layer 1">
<g clip-path="url(#clip_1)">
<path transform="matrix(1,0,0,-1,37.8673,24.2976)" d="M0 0C10.578 3.168 29.821 4.556 38.124-3.108 41.836-6.534 42.912-9.17 45.583-12.639 48.807-16.827 54.472-20.347 53.456-27.971 52.213-37.295 50.103-40.219 45.375-44.754 41.398-48.57 37.916-52.42 27.557-53.249 14.704-54.277 5.574-52.018-4.144-51.384-13.675-50.762-20.512-52.006-26.106-41.232-33.089-27.784-12.347-3.698 0 0" fill="#522b79"/>
<path transform="matrix(1,0,0,-1,54.0043,37.553697)" d="M0 0C1.729 .24 3.214 1.71 3.472 3.437 3.512 3.708 3.525 3.988 3.454 4.252 3.296 4.844 2.735 5.265 2.14 5.409 1.544 5.553 .917 5.464 .32 5.328-.798 5.072-1.877 4.653-2.873 4.086-3.222 3.888-3.576 3.656-3.764 3.301-3.913 3.019-3.94 2.691-3.964 2.374-4.096 .623-4.221-1.128-4.339-2.879-4.367-3.299-4.389-3.747-4.175-4.11-3.831-4.695-3.037-4.808-2.359-4.771-1.248-4.712-.151-4.419 .843-3.918" fill="#522b79"/>
<path transform="matrix(1,0,0,-1,54.3476,38.798799)" d="M0 0C1.983 .314 3.664 1.89 4.248 3.789 4.607 4.953 4.502 6.234 3.584 7.11 2.661 7.992 1.381 8.112 .177 7.923-1.004 7.738-2.158 7.308-3.228 6.784-4.25 6.284-5.253 5.634-5.499 4.439-5.748 3.23-5.726 1.919-5.813 .69-5.856 .083-5.898-.523-5.939-1.129-5.98-1.724-6.045-2.337-5.883-2.922-5.053-5.918-.777-4.732 1.151-3.788 1.777-3.482 1.948-2.592 1.614-2.022 1.241-1.383 .476-1.251-.152-1.558-.826-1.888-1.574-2.119-2.32-2.207-2.622-2.242-2.955-2.267-3.258-2.226-3.052-2.254-3.528-2.145-3.425-2.176-3.607-2.121-3.352-2.167-3.398-2.224-3.445-2.282-3.408-2.119-3.408-2.032-3.408-1.832-3.391-1.632-3.378-1.432-3.346-.96-3.313-.489-3.28-.018-3.217 .892-3.151 1.801-3.084 2.71-3.06 3.032-2.997 3.524-3.009 3.753-3.016 3.891-2.994 3.898-2.973 3.931-2.929 4.003-2.826 4.061-2.696 4.14-2.027 4.549-1.301 4.86-.554 5.092 .084 5.291 .856 5.559 1.522 5.39 1.585 5.374 1.595 5.385 1.735 5.294 1.74 5.29 1.876 5.163 1.827 5.227 1.881 5.157 1.891 5.055 1.868 5.174 1.905 4.977 1.862 4.882 1.831 4.747 1.689 4.129 1.454 3.723 .981 3.27 .535 2.842 .019 2.602-.686 2.49-1.376 2.381-1.758 1.52-1.588 .902-1.387 .167-.691-.11 0 0" fill="#ffffff"/>
<path transform="matrix(1,0,0,-1,53.8398,42.3369)" d="M0 0C-.84-.571-1.71-1.175-2.208-2.061-2.705-2.947-2.703-4.203-1.924-4.857-1.053-5.589 .242-5.253 1.379-5.223 2.73-5.188 4.364-6.087 4.162-7.422 3.97-8.682 2.367-9.116 1.094-9.064-.18-9.013-1.65-8.829-2.544-9.737-3.543-10.751-3.194-12.546-4.072-13.665-4.9-14.72-6.769-14.664-7.531-13.56-9.234-11.094-4.953-7.995-5.855-5.136-6.477-3.165-9.045-2.754-11.112-2.733-12.892-2.715-14.835-2.781-16.194-3.931-17.552-5.081-17.65-7.72-15.986-8.352-15.167-8.664-14.256-8.393-13.38-8.403-12.504-8.412-11.458-8.968-11.545-9.84-11.647-10.87-13.035-11.049-14.06-11.193-15.069-11.334-16.096-11.759-16.679-12.595-17.262-13.431-17.233-14.73-16.426-15.353-15.666-15.941-14.594-15.756-13.635-15.705-12.675-15.653-11.484-15.951-11.267-16.887-11.115-17.536-11.524-18.172-11.931-18.699-12.691-19.685-13.55-20.642-14.668-21.189-15.786-21.736-17.219-21.793-18.212-21.043-18.936-20.495-19.367-19.582-20.186-19.189-21.417-18.6-22.812-19.441-23.99-20.129-25.168-20.817-26.862-21.298-27.741-20.254-28.691-19.125-27.655-17.361-26.368-16.64-25.081-15.918-23.501-15.634-22.504-14.546-20.947-12.846-21.576-10.188-21.452-7.885-21.315-5.322-20.059-2.839-18.076-1.209-17.3-.572-16.306 .258-16.638 1.205-16.953 2.106-18.174 2.194-19.125 2.118-21.504 1.929-23.883 1.74-26.262 1.55-27.237 1.473-28.522 1.049-28.422 .077-28.389-.242-28.192-.521-27.971-.753-27.272-1.49-26.289-1.907-25.595-2.648-24.901-3.389-24.635-4.741-25.461-5.33-26.189-5.85-27.487-5.591-27.801-6.429-28.347-7.889-24.768-8.083-24.999-9.625-25.055-10.004-25.357-10.294-25.661-10.527-28.223-12.495-31.779-12.424-34.977-11.966-36.356-11.768-38.151-10.845-37.663-9.54-37.254-8.449-35.73-8.535-34.587-8.312-32.314-7.87-30.807-5.134-31.646-2.977-32.501-2.894-33.356-2.812-34.211-2.73" fill="#522b79"/>
<path transform="matrix(1,0,0,-1,53.1881,41.221899)" d="M0 0C-1.282-.878-2.636-1.884-3.056-3.468-3.416-4.827-3.016-6.423-1.772-7.19-.28-8.109 1.293-7.214 2.792-7.75 4.716-8.438 2.129-8.901 1.394-8.872-.086-8.812-1.68-8.817-2.806-9.939-3.267-10.398-3.558-11.011-3.752-11.624-3.961-12.288-3.921-13.288-4.353-13.859-5.093-14.836-6.138-13.924-5.932-12.935-5.677-11.714-4.837-10.614-4.355-9.472-3.276-6.916-3.943-4.275-6.659-3.186-9.174-2.178-12.99-2.161-15.412-3.416-17.686-4.594-18.889-8.075-16.81-10.031-16.331-10.483-15.735-10.741-15.09-10.847-14.342-10.969-13.211-10.99-12.476-10.847-12.435-10.864-12.393-10.881-12.351-10.898-12.238-10.992-12.173-10.962-12.156-10.807-11.757-10.761-12.363-10.759-12.283-10.768-12.513-10.74-12.927-10.934-13.166-10.976-13.989-11.121-14.777-11.24-15.53-11.633-18.135-12.993-18.662-17.255-15.325-18.059-14.608-18.232-13.891-18.154-13.165-18.122-12.894-18.111-12.548-18.053-12.287-18.155-11.719-18.375-11.978-18.584-12.302-19.031-13.167-20.223-14.939-22.108-16.598-21.244-17.246-20.906-17.646-20.127-18.2-19.665-18.797-19.169-19.505-18.853-20.29-18.818-22.041-18.74-23.263-19.978-24.811-20.512-25.383-20.71-26.276-20.885-26.108-20.043-25.968-19.348-25.139-18.889-24.569-18.619-23.125-17.935-21.617-17.504-20.611-16.167-18.623-13.527-20.078-10.026-19.141-7.079-18.606-5.398-17.556-4.154-16.247-3.018-15.204-2.113-14.246-.857-14.806 .588-15.318 1.907-16.732 2.313-18.03 2.313-19.911 2.314-21.832 2.027-23.707 1.878-25.187 1.76-27.056 1.858-28.247 .791-29.367-.212-29.224-1.738-28.233-2.781-27.768-3.271-24.991-4.831-25.783-5.471-26.146-5.765-26.959-5.719-27.401-5.981-27.976-6.322-28.373-6.884-28.465-7.548-28.612-8.609-27.932-9.37-27.093-9.905-26.692-10.161-26.254-10.379-25.836-10.608-25.769-10.645-25.451-10.844-25.575-10.783-25.622-10.759-25.637-10.479-25.628-10.476-25.834-10.538-26.101-10.841-26.294-10.961-27.746-11.864-29.514-12.076-31.19-12.056-32.558-12.04-34.405-12.087-35.572-11.26-35.841-11.07-35.778-11.112-35.746-11.078-35.585-10.907-35.011-10.88-34.806-10.847-34.13-10.738-33.48-10.689-32.838-10.432-31.612-9.941-30.616-8.958-30.041-7.774-29.429-6.513-29.301-5.08-29.749-3.748-29.947-3.16-30.395-2.858-30.994-2.8-31.849-2.718-32.704-2.636-33.559-2.554-35.212-2.395-35.201-4.979-33.559-5.136-32.704-5.218-31.849-5.301-30.994-5.383-31.409-5.067-31.824-4.751-32.239-4.435-31.815-5.696-32.265-7.147-33.432-7.861-34.612-8.582-36.137-8.171-37.301-9.02-38.389-9.814-38.687-11.286-37.973-12.433-37.247-13.6-35.773-14.159-34.476-14.352-31.226-14.837-27.504-14.91-24.67-12.984-23.553-12.224-22.557-10.947-23.309-9.568-23.755-8.75-24.758-8.122-25.606-7.784-25.661-7.762-25.965-7.517-25.996-7.529-26.11-7.573-25.8-2.233-26.028-7.859-26.052-8.43-26.037-8.094-25.653-8.09-25.074-8.085-24.324-7.727-23.897-7.358-22.816-6.425-22.806-4.802-23.469-3.618-23.84-2.955-24.408-2.474-25.011-2.03-25.325-1.799-25.658-1.593-25.962-1.349-26.077-1.257-26.359-.864-26.424-1.018-26.476-1.139-26.114-.954-26.029-.939-24.105-.598-22.087-.576-20.138-.42-19.337-.357-18.378-.134-17.576-.282-17.507-.294-17.279-.309-17.234-.374-17.066-.618-17.24-.263-17.309-.445-17.43-.764-17.953-1.086-18.205-1.301-19.467-2.378-20.487-3.663-21.163-5.184-21.862-6.76-22.129-8.395-22.106-10.112-22.086-11.559-21.731-13.557-22.766-14.748-23.795-15.932-25.669-16.07-26.899-17.008-27.987-17.838-28.831-19.161-28.734-20.573-28.63-22.105-27.309-23.186-25.825-23.256-24.093-23.337-22.855-22.264-21.345-21.64-20.302-21.209-19.883-21.583-19.2-22.347-18.687-22.921-18.14-23.405-17.415-23.693-15.911-24.294-14.166-23.973-12.829-23.11-10.655-21.707-7.162-17.276-11.177-15.795-11.75-15.584-12.375-15.514-12.983-15.528-13.565-15.542-14.937-15.909-15.135-15.125-15.527-13.577-12.464-13.547-11.597-13.258-10.297-12.826-9.265-11.648-9.701-10.206-10.119-8.828-11.617-8.218-12.948-8.234-13.591-8.241-14.771-8.628-15.176-7.963-15.428-7.551-15.258-6.85-15.043-6.465-14.265-5.066-12.027-5.129-10.652-5.138-9.452-5.146-7.564-5.143-6.703-6.159-5.9-7.109-6.711-8.507-7.175-9.416-8.24-11.501-9.637-14.479-7.143-16.199-6.029-16.967-4.473-17.036-3.302-16.35-1.981-15.576-1.719-14.164-1.385-12.792-.933-10.931 .681-11.538 2.197-11.466 3.497-11.404 4.927-10.972 5.669-9.823 6.47-8.582 6.112-7.046 5.041-6.103 3.839-5.044 2.365-5.046 .863-5.128 .105-5.169-.788-5.169-.565-4.154-.376-3.291 .631-2.69 1.303-2.23 2.666-1.296 1.376 .943 0 0" fill="#ffffff"/>
<path transform="matrix(1,0,0,-1,15.0701,63.980398)" d="M0 0C-.199 .125-.307 .354-.379 .578-.668 1.473-.518 2.542 .149 3.204 .816 3.866 2.022 3.966 2.686 3.3 2.844 3.141 2.968 2.948 3.127 2.79 3.889 2.033 5.428 2.468 5.682 3.511 5.766 3.856 5.728 4.225 5.839 4.562 5.951 4.9 6.31 5.207 6.639 5.074 6.75 5.028 6.838 4.94 6.91 4.844 7.615 3.898 6.852 2.609 6.567 1.464 6.264 .244 6.58-1.113 7.391-2.074 8.202-3.034 9.488-3.573 10.741-3.478 11.213-3.442 11.736-3.336 12.119-3.612 12.478-3.87 12.566-4.377 12.49-4.813 12.222-6.36 10.437-7.162 8.868-7.21 7.201-7.262 5.521-6.753 4.163-5.785 3.311-5.178 2.525-4.182 2.809-3.175" fill="#522b79"/>
<path transform="matrix(1,0,0,-1,15.9831,63.067399)" d="M0 0C-.363 .304-.103 1.272 .28 1.479 .526 1.612 .713 1.57 .86 1.474 1.072 1.335 1.215 1.039 1.41 .868 1.617 .685 1.819 .562 2.067 .452 2.962 .053 4.033 .159 4.854 .691 5.281 .967 5.626 1.348 5.841 1.808 5.998 2.143 6.055 2.44 6.098 2.807 6.113 2.949 6.127 3.091 6.138 3.233 6.111 3.107 6.033 3.012 5.903 2.948H5.217C4.667 3.054 5.17 3.245 4.994 2.888 4.913 2.726 4.898 2.447 4.844 2.267 4.687 1.744 4.475 1.237 4.367 .701 4.138-.43 4.277-1.575 4.747-2.627 5.686-4.727 7.897-5.833 10.137-5.654 10.24-5.644 10.344-5.637 10.448-5.633 10.776-5.675 10.73-5.601 10.312-5.412 10.338-5.404 10.278-5.574 10.298-5.546 10.146-5.765 10.117-5.992 9.881-6.189 9.297-6.675 8.471-6.833 7.737-6.836 6.736-6.839 5.721-6.608 4.83-6.148 4.315-5.883 2.979-5.18 3.141-4.431 3.493-2.811 1.004-2.119 .651-3.745-.18-7.572 5.113-9.605 8.124-9.407 9.627-9.307 11.183-8.751 12.133-7.529 13.161-6.205 13.275-3.819 11.377-3.183 10.636-2.935 9.931-3.196 9.185-3.093 8.5-2.998 7.814-2.628 7.391-2.074 7.033-1.605 6.84-1.018 6.833-.431 6.822 .374 7.222 1.108 7.417 1.875 7.632 2.721 7.665 3.639 7.216 4.421 6.684 5.347 5.554 5.806 4.593 5.197 3.827 4.711 3.534 3.811 3.524 2.941 3.524 2.936 3.499 2.859 3.477 2.852 3.207 2.773 3.187 2.726 3.038 2.824 3.189 2.724 3.077 2.835 2.977 2.957 2.771 3.211 2.572 3.423 2.302 3.612 1.993 3.827 1.628 3.986 1.258 4.06 .375 4.237-.562 4.046-1.292 3.517-2.125 2.914-2.584 1.981-2.693 .973-2.796 .023-2.596-1.18-1.826-1.826-1.292-2.274-.523-2.349 0-1.826 .46-1.366 .537-.45 0 0" fill="#ffffff"/>
<path transform="matrix(1,0,0,-1,31.737,71.071498)" d="M0 0C-.269 1.572 1.688 2.762 3.248 2.432 4.808 2.103 5.98 .858 7.12-.257 8.26-1.372 9.642-2.481 11.236-2.413 12.829-2.346 14.266-.371 13.275 .879 12.765 1.522 11.845 1.715 11.301 2.33 10.384 3.368 11.049 5.159 12.273 5.807 13.497 6.455 14.992 6.256 16.325 5.881 17.659 5.507 18.981 4.969 20.366 4.986 21.233 4.997 22.217 5.195 22.879 4.634 23.563 4.053 23.533 2.939 24.163 2.299 24.799 1.652 25.897 1.732 26.691 2.17 27.485 2.608 28.081 3.324 28.767 3.916 29.969 4.953 31.483 5.622 33.058 5.813 34.424 5.979 35.845 5.797 37.155 6.219 38.465 6.641 39.648 8.009 39.19 9.307 38.834 10.316 37.692 10.79 36.651 11.039 33.155 11.874 29.373 11.457 26.142 9.881 25.674 9.653 25.185 9.395 24.667 9.443 23.355 9.564 23.041 11.462 23.667 12.622 24.566 14.29 26.667 15.207 28.501 14.731" fill="#522b79"/>
<path transform="matrix(1,0,0,-1,33.0282,71.071498)" d="M0 0C-.112 1.293 1.58 1.318 2.408 .915 3.753 .26 4.683-1.047 5.816-1.987 7.756-3.597 10.579-4.558 12.567-2.474 13.293-1.713 13.758-.599 13.546 .46 13.447 .951 13.231 1.414 12.897 1.792 12.409 2.344 11.721 2.525 11.202 3.001 10.117 3.996 11.889 4.9 12.76 4.933 14.487 4.999 16.131 4.061 17.816 3.804 18.498 3.7 19.15 3.723 19.836 3.728 20.721 3.735 20.803 3.611 21.124 2.822 21.611 1.627 22.377 .713 23.742 .567 25.106 .421 26.254 1.072 27.247 1.942 28.407 2.958 29.413 3.913 30.944 4.337 33.674 5.092 36.977 4.05 38.75 6.926 40.245 9.353 38.353 11.523 36.018 12.202 32.845 13.126 29.191 12.893 26.097 11.793 25.721 11.66 25.351 11.51 24.984 11.352 24.698 11.229 24.111 10.798 23.789 10.804 23.364 10.811 23.592 10.598 23.394 10.986 23.29 11.192 23.35 11.527 23.41 11.744 23.794 13.131 25.597 13.757 26.867 13.486 28.487 13.14 29.18 15.628 27.553 15.976 25.059 16.508 22.238 15.435 21.141 13.015 20.17 10.873 21.337 7.671 24.102 8.214 24.902 8.371 25.627 8.858 26.379 9.153 27.047 9.416 27.739 9.624 28.437 9.79 30.163 10.199 31.989 10.286 33.747 10.041 34.527 9.932 37.093 9.658 36.611 8.373 36.006 6.761 33.098 7.253 31.767 7.104 30.36 6.947 28.981 6.496 27.78 5.738 27.128 5.327 26.553 4.824 25.99 4.301 25.563 3.903 24.763 2.957 24.077 3.119 23.448 3.267 23.389 4.258 23.103 4.766 22.828 5.255 22.435 5.677 21.937 5.945 21.29 6.293 20.552 6.322 19.836 6.311 18.889 6.295 18.084 6.34 17.155 6.593 14.494 7.32 10.883 8.515 8.979 5.668 8.355 4.735 8.107 3.551 8.466 2.473 8.672 1.853 9.097 1.361 9.612 .975 10.004 .682 11.004 .367 11.016-.153 11.031-.744 10.183-1.107 9.727-1.116 8.826-1.133 7.974-.451 7.332 .104 6.034 1.226 4.959 2.588 3.358 3.311 .94 4.403-2.854 3.145-2.582 0-2.441-1.643 .143-1.658 0 0" fill="#ffffff"/>
<path transform="matrix(1,0,0,-1,39.6486,35.007997)" d="M0 0C-.216-.46 .038-.992 .287-1.435 .822-2.385 1.357-3.336 1.892-4.286 2.024-4.52 2.165-4.763 2.391-4.908 2.728-5.123 3.165-5.065 3.56-5 4.421-4.857 5.445-4.578 5.692-3.741 5.902-3.03 5.416-2.298 5.421-1.556 5.425-.966 5.741-.415 5.762 .175 5.813 1.552 4.326 2.454 2.992 2.799 1.657 3.145 .13 3.328-.73 4.405-.884 4.597-1.014 4.845-.947 5.082-.891 5.283-.709 5.419-.533 5.53 .958 6.466 2.804 6.602 4.564 6.632 5.567 6.649 6.607 6.631 7.517 6.207 9.507 5.28 10.171 2.829 10.609 .677" fill="#522b79"/>
<path transform="matrix(1,0,0,-1,38.4036,34.664796)" d="M0 0C-.373-1.09 .219-2.078 .739-3 1.215-3.847 1.646-4.754 2.19-5.559 2.862-6.554 3.842-6.785 4.977-6.615 5.701-6.506 6.445-6.319 7.06-5.907 7.882-5.356 8.355-4.453 8.262-3.457 8.218-2.982 8.05-2.559 7.973-2.098 7.911-1.722 8.095-1.359 8.178-.996 8.608 .871 7.524 2.449 5.855 3.226 5.019 3.615 4.154 3.789 3.268 4.017 2.924 4.106 2.542 4.207 2.242 4.347 2.082 4.422 1.888 4.527 1.761 4.626 1.812 4.586 1.611 4.76 1.647 4.733 1.389 4.928 1.601 4.875 1.589 4.739 1.53 4.522 1.471 4.305 1.413 4.087 1.413 4.089 1.188 4.028 1.447 4.122 1.594 4.175 1.73 4.287 1.873 4.355 2.122 4.474 2.383 4.561 2.648 4.637 3.2 4.795 3.761 4.887 4.332 4.933 5.505 5.028 6.921 5.189 8.048 4.768 9.806 4.111 10.257 1.7 10.609-.009 10.749-.693 11.557-1.087 12.197-.911 12.907-.716 13.24-.008 13.099 .677 12.626 2.978 11.87 5.576 9.696 6.833 8.4 7.581 6.871 7.612 5.417 7.571 4.007 7.531 2.55 7.404 1.231 6.874 .591 6.617-.088 6.317-.551 5.791-1.262 4.985-1.037 3.912-.398 3.148 .43 2.159 1.698 1.737 2.911 1.446 3.867 1.217 5.015 1.045 5.604 .249 5.555 .316 5.582 .289 5.651 .154 5.766-.069 5.699 .183 5.725-.07 5.708 .089 5.717-.158 5.716-.168 5.701-.313 5.65-.456 5.613-.595 5.387-1.424 5.33-2.139 5.536-2.981 5.595-3.225 5.719-3.483 5.695-3.734 5.695-3.736 5.751-3.662 5.755-3.651 5.708-3.779 5.695-3.723 5.578-3.792 5.297-3.958 4.683-4.061 4.289-4.13 4.445-4.102 4.469-4.467 4.333-4.118 4.263-3.938 4.133-3.765 4.038-3.597 3.824-3.217 3.61-2.837 3.396-2.457 3.182-2.077 2.967-1.697 2.754-1.316 2.652-1.133 2.432-.855 2.49-.686 2.716-.027 2.232 .725 1.588 .902 .88 1.096 .226 .662 0 0" fill="#ffffff"/>
<path transform="matrix(1,0,0,-1,34.3441,30.121598)" d="M0 0C-.611 .034-1.23-.266-1.584-.765-1.439-1.586-.478-1.945 .338-2.114 1.154-2.282 2.117-2.526 2.404-3.308 2.637-3.942 2.273-4.67 1.731-5.07 1.188-5.471 .505-5.62-.156-5.758-2.845-6.323-5.534-6.887-8.223-7.451-8.571-6.903-8.113-6.204-7.638-5.762-6.687-4.875-5.563-4.173-4.349-3.708" fill="#522b79"/>
<path transform="matrix(1,0,0,-1,34.3441,28.830498)" d="M0 0C-.903 .009-1.792-.35-2.403-1.023-3.188-1.886-2.827-3.034-2.014-3.733-1.403-4.26-.642-4.507 .132-4.679 .32-4.72 .507-4.763 .691-4.818 .68-4.814 1.089-4.965 .918-4.887 1.001-4.926 1.082-4.97 1.16-5.019 1.081-4.945 1.098-4.961 1.209-5.066 1.146-4.972 1.155-4.992 1.236-5.126 1.215-5.111 1.201-5.092 1.193-5.069 1.282-4.948 1.089-5.195 1.139-5.126 1.018-5.294 1.1-5.223 .94-5.346 .708-5.525 .367-5.602 .08-5.674-.827-5.903-1.755-6.068-2.671-6.26-4.636-6.673-6.601-7.085-8.566-7.497-8.08-7.695-7.594-7.893-7.108-8.091-6.963-8.379-7.155-8.414-6.963-8.218-6.883-8.136-6.809-8.047-6.725-7.966-6.485-7.736-6.228-7.521-5.957-7.328-5.352-6.897-4.697-6.516-4.005-6.244-3.357-5.989-2.905-5.379-3.104-4.656-3.273-4.038-4.039-3.497-4.692-3.754-6.718-4.551-10.718-6.658-9.338-9.394-9.071-9.924-8.418-10.1-7.88-9.987-6.018-9.597-4.157-9.206-2.295-8.815-1.412-8.63-.528-8.452 .353-8.259 1.179-8.079 1.981-7.818 2.644-7.275 4.077-6.1 4.133-3.943 2.574-2.865 2.013-2.476 1.337-2.306 .681-2.16 .494-2.118 .308-2.075 .126-2.016-.072-1.952 .095-2.029-.1-1.928-.125-1.915-.438-1.782-.29-1.82-.398-1.709-.412-1.695-.333-1.778-.294-1.889-.296-1.867-.339-1.713-.449-2.132-.56-2.55-.671-2.969-.534-2.793-.49-2.711-.304-2.625-.19-2.572-.151-2.581 0-2.582 1.662-2.599 1.664-.017 0 0" fill="#ffffff"/>
<path transform="matrix(1,0,0,-1,69.9819,39.6438)" d="M0 0C-1.53 .494-3.107 .839-4.703 1.029-5.854 1.165-7.041 1.218-8.151 .887-9.262 .556-10.293-.218-10.675-1.312-10.833-1.767-10.872-2.278-10.694-2.725-10.311-3.682-9.145-4.007-8.135-4.208-6.887-4.457-5.639-4.706-4.391-4.954-3.576-5.117-2.596-5.439-2.451-6.256-2.294-7.143-3.238-7.779-3.99-8.275-5.231-9.094-6.283-10.197-7.042-11.475-7.366-12.021-7.644-12.676-7.433-13.274-7.18-13.996-6.349-14.309-5.611-14.512-4.882-14.712-4.148-14.893-3.41-15.055-2.73-15.204-2.022-15.336-1.342-15.186-.662-15.037-.013-14.534 .096-13.846 .227-13.011-.373-11.947 .292-11.425 .758-11.059 1.497-11.401 1.75-11.935 2.003-12.47 1.917-13.096 1.826-13.68 3.534-13.588 5.225-13.202 6.804-12.544" fill="#522b79"/>
<path transform="matrix(1,0,0,-1,70.3251,38.398698)" d="M0 0C-1.795 .567-3.643 .952-5.519 1.124-7.221 1.281-9.053 1.114-10.485 .097-11.818-.85-12.792-2.508-12.323-4.176-11.878-5.758-10.283-6.394-8.821-6.698-7.915-6.887-7.006-7.06-6.098-7.241-5.534-7.354-4.407-7.368-3.992-7.849-4.195-7.614-4.07-7.711-4.389-7.983-4.609-8.172-4.862-8.32-5.1-8.484-5.841-8.993-6.54-9.571-7.143-10.239-8.153-11.36-9.428-12.988-9.083-14.603-8.718-16.315-7.001-16.83-5.515-17.209-3.713-17.668-1.506-18.319 .071-16.951 .757-16.356 1.098-15.523 1.055-14.618 1.042-14.339 1.052-13.789 .925-13.531 .782-13.24 .348-13.613 .262-13.798 .183-13.968 .267-14.382 .237-14.582 .124-15.348 .558-16.277 1.482-16.217 3.317-16.098 5.098-15.724 6.804-15.035 7.456-14.771 7.899-14.176 7.706-13.446 7.544-12.831 6.763-12.284 6.118-12.544 4.626-13.147 3.089-13.53 1.482-13.634 1.897-14.179 2.312-14.724 2.727-15.269 2.96-13.702 2.826-11.816 .996-11.314-.612-10.872-1.755-12.253-1.639-13.764-1.604-14.215-1.313-14.799-1.745-15.09-2.315-15.473-3.454-15.049-4.042-14.911-4.744-14.747-5.529-14.623-6.19-14.326-6.816-14.045-6.423-13.606-6.125-13.134-5.304-11.836-4.168-11.043-2.971-10.134-1.865-9.294-1.01-7.916-1.787-6.545-2.581-5.145-4.332-4.966-5.752-4.683-6.585-4.517-7.421-4.361-8.252-4.184-8.685-4.092-9.588-3.988-9.82-3.529-10.1-2.975-9.371-2.257-8.976-1.992-8.285-1.526-7.444-1.404-6.627-1.401-4.622-1.394-2.588-1.89-.686-2.49 .902-2.992 1.582-.499 0 0" fill="#ffffff"/>
<path transform="matrix(1,0,0,-1,71.6169,45.199998)" d="M0 0C1.689-.394 3.514-.734 5.115-.064 7.007 .728 8.074 2.701 8.995 4.533 9.195 4.93 9.4 5.368 9.3 5.801 9.2 6.239 8.816 6.545 8.457 6.815 7.767 7.335 7.042 7.87 6.191 8.024 5.341 8.178 4.331 7.822 4.031 7.011 3.891 6.63 3.921 6.202 3.773 5.824 3.414 4.907 2.23 4.681 1.244 4.68-.387 4.679-2.174 4.999-3.228 6.243" fill="#522b79"/>
<path transform="matrix(1,0,0,-1,71.2736,46.4451)" d="M0 0C2.238-.517 4.7-.878 6.762 .403 8.525 1.499 9.628 3.402 10.503 5.228 11.105 6.485 11.116 7.745 10.02 8.731 9.219 9.452 8.21 10.146 7.167 10.445 6.173 10.729 5.038 10.601 4.185 9.996 3.736 9.678 3.397 9.266 3.195 8.753 3.065 8.423 3.064 7.734 2.906 7.523 2.538 7.033 1.087 7.197 .486 7.27-.454 7.384-1.33 7.683-1.972 8.401-3.081 9.643-4.903 7.812-3.798 6.575-2.555 5.184-.67 4.712 1.131 4.643 2.871 4.575 5.002 5.046 5.442 7.018 5.588 7.67 5.493 8.062 6.21 8.012 6.897 7.964 7.613 7.332 8.194 6.905 8.247 6.866 8.425 6.638 8.378 6.829 8.411 6.693 8.23 6.444 8.182 6.347 7.984 5.952 7.78 5.56 7.565 5.175 7.175 4.478 6.751 3.8 6.187 3.23 4.668 1.697 2.602 2.048 .686 2.49-.931 2.864-1.621 .375 0 0" fill="#ffffff"/>
<path transform="matrix(1,0,0,-1,61.8948,29.681496)" d="M0 0C-.417-.969-.552-2.058-.383-3.099 1.457-3.982 3.556-4.111 5.594-4.225 7.207-4.315 8.82-4.405 10.434-4.496 10.769-4.514 11.123-4.53 11.423-4.377 12.144-4.009 12.112-2.981 11.947-2.189 11.782-1.397 11.661-.402 12.323 .064" fill="#522b79"/>
<path transform="matrix(1,0,0,-1,60.6497,29.338196)" d="M0 0C-.395-.973-.57-2.057-.472-3.106-.403-3.84-.255-4.299 .416-4.652 .903-4.908 1.469-5.088 1.997-5.235 3.955-5.779 6.032-5.814 8.049-5.927L11.195-6.103C12.204-6.159 13.201-6.156 13.928-5.341 14.528-4.668 14.642-3.723 14.541-2.859 14.495-2.471 14.387-2.071 14.36-1.7 14.359-1.678 14.356-1.35 14.347-1.389 14.4-1.154 14.293-1.346 14.481-1.192 15.021-.75 14.94 .175 14.481 .634 13.947 1.168 13.196 1.077 12.655 .634 11.584-.244 11.736-1.664 11.947-2.875 11.982-3.075 11.938-3.338 11.995-3.539 12.09-3.87 11.83-3.507 12.139-3.548 11.484-3.462 10.77-3.497 10.106-3.46 8.6-3.375 7.092-3.31 5.589-3.199 4.208-3.097 2.783-2.914 1.514-2.327 1.712-2.585 1.909-2.842 2.107-3.099 1.99-2.27 2.18-1.45 2.49-.687 2.753-.04 2.205 .732 1.588 .902 .85 1.105 .264 .649 0 0" fill="#ffffff"/>
<path transform="matrix(1,0,0,-1,66.9372,33.5794)" d="M0 0C-.166 .356-.017 .826 .323 1.022 .664 1.217 1.145 1.108 1.369 .785 1.471 .637 1.52 .459 1.611 .303 1.958-.291 2.765-.38 3.453-.402" fill="#522b79"/>
<path transform="matrix(1,0,0,-1,68.0521,32.927698)" d="M0 0C-.006 .014-.012 .028-.018 .042L.112-.267C.092-.21 .078-.153 .069-.093L.115-.437C.107-.361 .108-.288 .118-.213 .102-.327 .087-.441 .072-.556 .085-.481 .105-.41 .134-.34L.004-.648C.036-.579 .074-.517 .12-.456L-.082-.718C-.042-.672-.001-.631 .046-.593-.041-.66-.128-.728-.215-.795-.165-.759-.115-.731-.059-.705-.162-.749-.265-.792-.367-.836-.311-.814-.255-.799-.195-.788-.309-.803-.424-.818-.538-.834-.462-.824-.39-.823-.314-.83-.428-.815-.543-.799-.657-.784-.581-.795-.511-.813-.439-.839-.542-.796-.645-.752-.747-.709-.677-.739-.614-.775-.553-.819-.64-.752-.727-.685-.814-.618-.767-.656-.725-.697-.686-.743-.753-.656-.821-.569-.888-.482-.8-.6-.748-.734-.687-.866-.593-1.067-.457-1.245-.311-1.411-.113-1.637 .146-1.825 .419-1.951 1.029-2.233 1.669-2.322 2.338-2.345 3.013-2.368 3.659-1.734 3.629-1.054 3.597-.334 3.062 .213 2.338 .238 2.145 .244 1.952 .256 1.76 .28L2.103 .233C1.866 .265 1.635 .316 1.414 .409 1.517 .366 1.62 .322 1.723 .279 1.612 .329 1.51 .388 1.414 .462 1.501 .394 1.588 .327 1.675 .26 1.605 .317 1.543 .38 1.486 .45 1.554 .363 1.621 .276 1.688 .189 1.582 .333 1.524 .497 1.443 .656 1.284 .971 1.035 1.209 .751 1.41 .277 1.747-.368 1.826-.926 1.694-1.47 1.566-1.96 1.169-2.217 .676-2.38 .361-2.459 .053-2.473-.302-2.488-.67-2.37-.975-2.23-1.303-2.112-1.579-1.733-1.821-1.458-1.897-1.149-1.982-.738-1.943-.463-1.767-.188-1.589 .055-1.324 .13-.995 .146-.881 .161-.766 .176-.652 .176-.419 .117-.201 0 0" fill="#ffffff"/>
<path transform="matrix(1,0,0,-1,88.3286,51.0701)" d="M0 0C-.704-.493-1.767 .177-1.893 1.027-2.02 1.877-1.483 2.697-.826 3.251-.592 3.449-.312 3.687-.353 3.991-.386 4.239-.626 4.403-.854 4.506-2.54 5.266-4.481 4.43-6.137 3.605-6.974 3.188-7.914 2.634-8.04 1.708-8.186 .628-7.131-.251-6.956-1.326-6.688-2.979-8.465-4.16-9.979-4.877-11.45-5.573-12.921-6.269-14.393-6.965-14.548-7.038-14.717-7.127-14.773-7.289-14.882-7.606-14.494-7.854-14.178-7.966-13.356-8.259-12.533-8.551-11.71-8.844-10.646-9.222-9.511-9.653-8.873-10.584-7.809-12.136-8.601-14.236-9.433-15.922" fill="#522b79"/>
<path transform="matrix(1,0,0,-1,87.6497,49.9088)" d="M0 0C.337 .174-.03-.053 .113 .183 .308 .505 .403 .752 .684 1.028 1.184 1.521 1.64 1.96 1.659 2.721 1.699 4.276-.024 4.885-1.313 4.972-2.897 5.08-4.428 4.435-5.823 3.759-7.026 3.177-8.267 2.416-8.627 1.037-8.998-.381-8.046-1.247-7.669-2.485-7.33-3.597-8.934-4.355-9.724-4.753-11.284-5.54-13.013-6.125-14.506-7.03-15.854-7.846-15.614-9.538-14.299-10.235-12.855-11-10.911-11.07-9.639-12.152-8.373-13.228-9.337-15.211-9.916-16.405-10.667-17.956-8.348-19.322-7.593-17.763-6.601-15.716-5.664-13.176-7.032-11.067-7.682-10.066-8.721-9.477-9.799-9.039-10.318-8.827-10.85-8.645-11.379-8.458-11.731-8.332-12.084-8.207-12.437-8.082-12.554-8.04-12.672-7.998-12.789-7.956-13.227-7.729-13.213-7.894-12.749-8.451-12.88-8.768-13.012-9.085-13.143-9.402-12.782-8.94-11.718-8.665-11.196-8.418-10.46-8.07-9.724-7.723-8.989-7.373-7.903-6.856-6.792-6.274-5.978-5.364-5.182-4.474-4.738-3.327-4.981-2.13-5.096-1.562-5.369-1.043-5.643-.538-5.837-.179-6.136 .16-5.927 .543-5.702 .955-4.86 1.246-4.466 1.437-3.828 1.745-3.166 2.038-2.471 2.191-2.144 2.263-1.816 2.32-1.479 2.295-1.378 2.284-1.277 2.272-1.176 2.261-.622 1.999-.537 2.311-.92 3.197-1.303 3.163-1.968 2.072-2.136 1.767-3.425-.57-1.271-3.682 1.358-2.323 2.896-1.527 1.537 .795 0 0" fill="#ffffff"/>
<path transform="matrix(1,0,0,-1,82.2957,58.419)" d="M0 0C.552-.675 1.103-1.35 1.655-2.024 1.887-2.309 2.142-2.608 2.494-2.711 3.346-2.959 4.007-1.977 4.352-1.159 4.697-.34 5.042 .478 5.387 1.296 5.488 1.534 5.586 1.817 5.453 2.039 5.328 2.249 5.057 2.304 4.823 2.374 3.965 2.634 3.279 3.391 3.105 4.27" fill="#522b79"/>
<path transform="matrix(1,0,0,-1,81.3446,59.3701)" d="M0 0C.363-.444 .726-.888 1.089-1.332 1.413-1.728 1.717-2.179 2.113-2.507 2.719-3.007 3.415-3.236 4.198-3.086 4.724-2.985 5.223-2.656 5.582-2.265 6.356-1.421 6.707-.312 7.144 .724 7.346 1.204 7.626 1.703 7.745 2.212 7.941 3.05 7.628 3.934 6.849 4.351 6.681 4.441 6.493 4.511 6.311 4.57 6.253 4.588 5.936 4.662 6.105 4.622 6.257 4.586 6.129 4.609 6.084 4.634 6.025 4.665 5.967 4.695 5.91 4.729 5.868 4.755 5.828 4.786 5.785 4.81 5.636 4.895 5.939 4.658 5.822 4.783 5.744 4.867 5.655 4.944 5.577 5.029 5.547 5.061 5.478 5.186 5.558 5.049 5.649 4.894 5.542 5.088 5.524 5.118 5.498 5.16 5.475 5.204 5.45 5.247 5.335 5.442 5.482 5.206 5.463 5.197 5.455 5.193 5.358 5.557 5.353 5.578 5.201 6.266 4.365 6.733 3.698 6.518 2.975 6.284 2.597 5.6 2.759 4.863 3.002 3.762 3.794 2.751 4.816 2.268 5.01 2.177 5.211 2.093 5.416 2.028 5.458 2.015 5.645 1.938 5.685 1.947 5.492 2 5.345 2.122 5.243 2.311 5.233 2.941 5.198 3.128 5.136 2.872 5.081 2.748 5.043 2.609 4.99 2.482 4.759 1.929 4.524 1.377 4.291 .825 4.231 .682 4.17 .538 4.11 .395 3.942 0 4.213 .594 4.063 .294 3.956 .08 3.841-.119 3.715-.322 3.563-.569 3.872-.185 3.68-.363 3.615-.423 3.292-.676 3.601-.457 3.393-.604 3.866-.397 3.608-.467 3.463-.499 3.498-.494 3.712-.454 3.908-.491 3.953-.498 3.848-.474 3.761-.45 3.786-.464 3.924-.515 3.797-.434 3.8-.44 3.932-.534 3.851-.455 3.774-.378 3.7-.293 3.5-.065 3.313 .176 3.122 .41 2.715 .908 2.309 1.405 1.902 1.902 1.455 2.449 .458 2.401 0 1.902-.533 1.321-.477 .584 0 0" fill="#ffffff"/>
<path transform="matrix(1,0,0,-1,74.3593,66.1259)" d="M0 0C-.949-.123-1.096-1.494-.68-2.356-.265-3.218 .464-4.018 .387-4.972 .314-5.879-.498-6.571-1.357-6.871-3.377-7.577-5.856-6.428-6.623-4.43-6.732-4.148-6.827-3.83-7.08-3.665-7.342-3.493-7.685-3.543-7.994-3.599-9.265-3.83-10.649-4.126-11.458-5.133-11.962-5.761-12.167-6.586-12.656-7.227-13.949-8.925-16.526-8.687-18.622-8.281-21.021-7.816-23.714-7.149-24.925-5.025" fill="#522b79"/>
<path transform="matrix(1,0,0,-1,74.0018,64.828998)" d="M0 0C-1.314-.348-1.943-1.566-1.877-2.87-1.838-3.651-1.51-4.305-1.131-4.97-.777-5.592-.302-6.19-1.053-6.711-2.168-7.484-3.908-6.854-4.666-5.865-5.118-5.277-5.181-4.507-5.772-4.01-6.369-3.508-7.088-3.459-7.836-3.576-9.308-3.805-10.883-4.223-11.934-5.35-13.071-6.568-13.084-8.233-14.995-8.492-16.464-8.69-18.055-8.296-19.472-7.941-20.98-7.563-22.544-7.026-23.406-5.644-24.319-4.177-26.647-5.526-25.729-7.001-23.894-9.947-20.125-10.788-16.893-11.141-15.238-11.321-13.438-11.204-12.068-10.159-10.611-9.047-10.558-7.074-8.677-6.502-8.286-6.383-7.859-6.272-7.453-6.225-7.182-6.206-7.218-6.159-7.563-6.085-7.477-6.291-7.39-6.496-7.3-6.699-6.956-7.37-6.46-7.951-5.875-8.421-4.594-9.452-2.887-9.936-1.259-9.622 .286-9.325 1.759-8.243 2.042-6.626 2.189-5.784 1.935-4.991 1.557-4.248 1.36-3.859 .998-3.467 .875-3.049 .812-2.903 .789-2.752 .804-2.595 .87-2.375 .841-2.374 .715-2.594 2.387-2.152 1.678 .444 0 0" fill="#ffffff"/>
<path transform="matrix(1,0,0,-1,50.9739,25.333695)" d="M0 0C.913-.351 1.974-.886 2.059-1.861 2.074-2.026 2.058-2.2 2.127-2.351 2.266-2.656 2.664-2.722 2.999-2.73 3.797-2.747 4.597-2.666 5.375-2.488 5.607-2.436 5.852-2.364 6.003-2.181 6.195-1.947 6.174-1.612 6.223-1.313 6.345-.584 6.945-.003 7.629 .278 8.312 .558 9.072 .584 9.811 .559 10.764 .527 11.734 .413 12.602 .015 13.469-.382 14.229-1.098 14.491-2.015 14.593-2.372 14.646-2.792 14.955-2.997 15.159-3.133 15.421-3.133 15.666-3.128 16.506-3.112 17.346-3.096 18.186-3.079L17.924-1.458" fill="#522b79"/>
<path transform="matrix(1,0,0,-1,50.6164,26.6306)" d="M0 0C.308-.122 .766-.28 .98-.548 1.223-.855 1.125-1.364 1.323-1.733 1.792-2.608 2.798-2.788 3.699-2.779 4.781-2.769 6.265-2.709 7.133-1.985 7.495-1.682 7.716-1.292 7.821-.832 7.915-.421 7.843-.158 8.168 .134 8.852 .749 10.295 .56 11.123 .444 11.98 .324 12.99 .007 13.434-.806 13.892-1.646 13.854-2.5 14.854-2.957 15.91-3.439 17.413-3.149 18.543-3.127 19.49-3.109 19.979-2.287 19.84-1.425 19.753-.884 19.666-.344 19.578 .196 19.303 1.901 16.71 1.177 16.984-.519L17.246-2.14C17.678-1.572 18.111-1.005 18.543-.437 17.883-.45 17.223-.463 16.564-.476 16.444-.478 16.324-.48 16.204-.483 15.915-.44 15.936-.546 16.264-.801 16.264-.801 16.116-.273 16.104-.238 15.776 .72 15.146 1.505 14.316 2.08 12.629 3.248 9.883 3.553 7.926 2.977 7.034 2.714 6.174 2.143 5.686 1.337 5.487 1.008 5.108 .271 5.222-.13 5.18-.37 5.231-.291 5.375 .106 5.264 .082 5.152 .059 5.04 .035 4.791 .047 4.47-.05 4.211-.067 4.148-.072 3.371-.049 3.357-.088 3.415 .071 3.804-1.213 3.714-.206 3.677 .213 3.452 .62 3.21 .953 2.595 1.795 1.657 2.22 .715 2.594 .035 2.864-.755 2.298-.939 1.654-1.158 .892-.672 .267 0 0" fill="#ffffff"/>
</g>
</g>
</svg>
