<?xml version="1.0" encoding="UTF-8"?>
<svg id="Layer_2" data-name="Layer 2" xmlns="http://www.w3.org/2000/svg" viewBox="0 0 851.54 851.54">
  <defs>
    <style>
      .cls-1 {
        fill: #fff;
      }

      .cls-2 {
        fill: #000100;
      }

      .cls-3, .cls-4 {
        fill-rule: evenodd;
      }

      .cls-3, .cls-4, .cls-5 {
        fill: #474749;
      }

      .cls-4 {
        stroke: #fff;
        stroke-miterlimit: 10;
        stroke-width: 12.57px;
      }
    </style>
  </defs>
  <g id="Layer_1-2" data-name="Layer 1">
    <circle class="cls-1" cx="425.77" cy="424.27" r="351.29"/>
    <g>
      <path class="cls-2" d="m358.25,741.34c7.42,18.47,16.52,37.46,27.39,56.52,11,17.77,23.78,36.01,38.34,53.67,14.74-17.83,27.74-35.19,38.87-53.41,11.03-19.11,20.44-37.11,27.8-56.36-43.48,9.09-88.77,8.95-132.4-.43Z"/>
      <path class="cls-2" d="m110.19,358.25c-18.47,7.42-37.46,16.52-56.52,27.39-17.77,11-36.01,23.78-53.67,38.34,17.83,14.74,35.19,27.74,53.41,38.87,19.11,11.03,37.11,20.44,56.36,27.8-9.09-43.48-8.95-88.77.43-132.4Z"/>
      <path class="cls-2" d="m493.29,110.19c-7.42-18.47-16.52-37.46-27.39-56.52-11-17.77-23.78-36.01-38.34-53.67-14.74,17.83-27.74,35.18-38.87,53.41-11.03,19.11-20.44,37.11-27.8,56.36,43.48-9.09,88.77-8.95,132.4.43Z"/>
      <path class="cls-2" d="m741.35,493.29c18.47-7.42,37.46-16.52,56.52-27.39,17.77-11,36.01-23.78,53.67-38.34-17.83-14.74-35.19-27.74-53.41-38.87-19.11-11.03-37.11-20.44-56.36-27.8,9.09,43.48,8.95,88.77-.43,132.4Z"/>
    </g>
    <path class="cls-3" d="m308.55,503.28c0,35.38,31.48,55.43,70.31,55.43,38.83,0,95.63-34.11,70.55-59.07-43.37-43.17-72.7-72.7-91.79-66.34-19.08,6.36-49.07,34.59-49.07,69.98Z"/>
    <path class="cls-3" d="m400.04,678.8s-69.68,34.49-85.72,31.16c-32.6-15.17-14.07-86.66-14.07-86.66l99.79,55.49Z"/>
    <path class="cls-3" d="m215.46,477.93s2.86,37.96,34.89,61.73c47.21,43.68,90.4-74.74,238.15-75.04,92.99.44,128.63,45.15,145.59,157.44,2.62,87.76-78.98,91.58-114.83,92.21-134.12,2.35-194.05-63.29-194.05-63.29,0,0-50.82-54.9-67.97-51.78-26.2,4.77-53.54,68.25-53.54,68.25,0,0-39.37-27.13-39.37-97.93s39.89-82.37,51.13-91.59Z"/>
    <g>
      <circle class="cls-1" cx="539.94" cy="573.75" r="61.32"/>
      <circle class="cls-5" cx="539.94" cy="573.75" r="35.47"/>
    </g>
    <path class="cls-4" d="m638.61,301.09c-9.47-62.7-29.37-87.67-81.3-87.92-13.78.03-25.89,1.92-36.69,4.9-16.27-15.71-28.08-25.16-36.39-22.39-10.66,3.55-27.4,19.32-27.4,39.08,0,5.64,1.47,10.55,4.02,14.73-14.76,10.09-25.45,15.82-36.52,5.58-17.89-13.27-19.48-34.47-19.48-34.47-6.28,5.15-28.55,11.61-28.55,51.15s21.99,54.68,21.99,54.68c0,0,15.27-35.45,29.9-38.11,5.01-.91,15.15,7.03,23.69,14.82-1.6,7.01-8.04,39.48,8.18,47.03,5.94,1.23,25-6.8,37.21-12.37,17.67,8.1,43.15,15.37,77.24,14.77,20.02-.35,65.59-2.48,64.12-51.49Z"/>
    <g>
      <circle class="cls-1" cx="578.41" cy="271.13" r="34.24"/>
      <circle class="cls-5" cx="578.41" cy="271.13" r="19.8"/>
    </g>
    <path class="cls-4" d="m530.29,233.38c-9.47-62.7-29.37-87.67-81.3-87.92-13.78.03-25.89,1.92-36.69,4.9-16.27-15.71-28.08-25.16-36.39-22.39-10.66,3.55-27.4,19.32-27.4,39.08,0,5.64,1.47,10.55,4.02,14.73-14.76,10.09-25.45,15.82-36.52,5.58-17.89-13.27-19.48-34.47-19.48-34.47-6.28,5.15-28.55,11.61-28.55,51.15s21.99,54.68,21.99,54.68c0,0,15.27-35.45,29.9-38.11,5.01-.91,15.15,7.03,23.69,14.82-1.6,7.01-8.04,39.48,8.18,47.03,5.94,1.23,25-6.8,37.21-12.37,17.67,8.1,43.15,15.37,77.24,14.77,20.02-.35,65.59-2.48,64.12-51.49Z"/>
    <g>
      <circle class="cls-1" cx="470.09" cy="203.42" r="34.24"/>
      <circle class="cls-5" cx="470.09" cy="203.42" r="19.8"/>
    </g>
    <path class="cls-4" d="m488.26,333.77c-9.47-62.7-29.37-87.67-81.3-87.92-13.78.03-25.89,1.92-36.69,4.9-16.27-15.71-28.08-25.16-36.39-22.39-10.66,3.55-27.4,19.32-27.4,39.08,0,5.64,1.47,10.55,4.02,14.73-14.76,10.09-25.45,15.82-36.52,5.58-17.89-13.27-19.48-34.47-19.48-34.47-6.28,5.15-28.55,11.61-28.55,51.15s21.99,54.68,21.99,54.68c0,0,15.27-35.45,29.9-38.11,5.01-.91,15.15,7.03,23.69,14.82-1.6,7.01-8.04,39.48,8.18,47.03,5.94,1.23,25-6.8,37.21-12.37,17.67,8.1,43.15,15.37,77.24,14.77,20.02-.35,65.59-2.48,64.12-51.49Z"/>
    <g>
      <circle class="cls-1" cx="428.06" cy="303.82" r="34.24"/>
      <circle class="cls-5" cx="428.06" cy="303.82" r="19.8"/>
    </g>
  </g>
</svg>