<?xml version="1.0" encoding="UTF-8"?>
<svg id="Layer_1" data-name="Layer 1" xmlns="http://www.w3.org/2000/svg" viewBox="0 0 863.52 546.93">
  <defs>
    <style>
      .cls-1 {
        fill: #fff;
      }

      .cls-2 {
        fill-rule: evenodd;
        stroke: #fff;
        stroke-miterlimit: 10;
        stroke-width: 20.05px;
      }

      .cls-2, .cls-3 {
        fill: #474749;
      }
    </style>
  </defs>
  <g>
    <path class="cls-2" d="m853.42,364.8c-19.36-128.15-60.03-179.18-166.16-179.68-28.15.06-52.91,3.93-74.99,10.01-33.25-32.1-57.39-51.41-74.37-45.75-21.78,7.26-56.01,39.48-56.01,79.86,0,11.52,3.01,21.56,8.21,30.11-30.17,20.62-52.02,32.34-74.64,11.41-36.56-27.13-39.82-70.45-39.82-70.45-12.83,10.52-58.35,23.73-58.35,104.53s44.93,111.76,44.93,111.76c0,0,31.2-72.45,61.1-77.89,10.23-1.86,30.96,14.37,48.42,30.29-3.27,14.32-16.43,80.69,16.72,96.12,12.13,2.51,51.1-13.9,76.04-25.28,36.12,16.55,88.19,31.4,157.85,30.18,40.92-.72,134.05-5.07,131.05-105.23Z"/>
    <g>
      <circle class="cls-1" cx="730.39" cy="303.57" r="69.98"/>
      <circle class="cls-3" cx="730.39" cy="303.57" r="40.48"/>
    </g>
  </g>
  <g>
    <path class="cls-2" d="m632.04,226.42c-19.36-128.15-60.03-179.18-166.16-179.68-28.15.06-52.91,3.93-74.99,10.01-33.25-32.1-57.39-51.41-74.37-45.75-21.78,7.26-56.01,39.48-56.01,79.86,0,11.52,3.01,21.56,8.21,30.11-30.17,20.62-52.02,32.34-74.64,11.41-36.56-27.13-39.82-70.45-39.82-70.45-12.83,10.52-58.35,23.73-58.35,104.53s44.93,111.76,44.93,111.76c0,0,31.2-72.45,61.1-77.89,10.23-1.86,30.96,14.37,48.42,30.29-3.27,14.32-16.43,80.69,16.72,96.12,12.13,2.51,51.1-13.9,76.04-25.28,36.12,16.55,88.19,31.4,157.85,30.18,40.92-.72,134.05-5.07,131.05-105.23Z"/>
    <g>
      <circle class="cls-1" cx="509.01" cy="165.19" r="69.98"/>
      <circle class="cls-3" cx="509.01" cy="165.19" r="40.48"/>
    </g>
  </g>
  <g>
    <path class="cls-2" d="m546.15,431.61c-19.36-128.15-60.03-179.18-166.16-179.68-28.15.06-52.91,3.93-74.99,10.01-33.25-32.1-57.39-51.41-74.37-45.75-21.78,7.26-56.01,39.48-56.01,79.86,0,11.52,3.01,21.56,8.21,30.11-30.17,20.62-52.02,32.34-74.64,11.41-36.56-27.13-39.82-70.45-39.82-70.45-12.83,10.52-58.35,23.73-58.35,104.53s44.93,111.76,44.93,111.76c0,0,31.2-72.45,61.1-77.89,10.23-1.86,30.96,14.37,48.42,30.29-3.27,14.32-16.43,80.69,16.72,96.12,12.13,2.51,51.1-13.9,76.04-25.28,36.12,16.55,88.19,31.4,157.85,30.18,40.92-.72,134.05-5.07,131.05-105.23Z"/>
    <g>
      <circle class="cls-1" cx="423.11" cy="370.38" r="69.98"/>
      <circle class="cls-3" cx="423.11" cy="370.38" r="40.48"/>
    </g>
  </g>
</svg>