<?xml version="1.0" encoding="UTF-8"?>
<svg id="Layer_1" data-name="Layer 1" xmlns="http://www.w3.org/2000/svg" viewBox="0 0 84.69 57.69">
  <defs>
    <style>
      .cls-1 {
        fill: #fff;
      }

      .cls-2 {
        fill: #707176;
      }

      .cls-3 {
        fill: #8cd5eb;
        stroke: #fff;
        stroke-miterlimit: 10;
        stroke-width: 2px;
      }
    </style>
  </defs>
  <rect class="cls-3" x="1" y="1" width="82.69" height="55.69" rx="9.08" ry="9.08"/>
  <path class="cls-1" d="m77.44,19.15c-2.94.33-8.45,1.32-12.77,4.25-5.4-3.07-15.97-8.32-25.6-8.65-5.01-.17-8.86.49-11.02,1-1.01.15-17.2,2.69-21.83,13.46,3.78,7.82,14.47,11.53,19.37,12.87v.05s7.62,2.61,18.71.86c7.45-1.17,15.96-6.26,20.76-9.47,3.73,2.38,8.21,3.46,11.19,3.94.66.11,1.01-.76.46-1.14-3.79-2.56-6.09-5.8-6.1-8.07.52-2.45,2-5.19,7.11-8.28.4-.25.21-.87-.26-.82h-.02Zm-58.79,8.31c-1.33,0-2.42-1.08-2.42-2.42s1.08-2.42,2.42-2.42,2.42,1.08,2.42,2.42-1.08,2.42-2.42,2.42Zm8.75,11.12l-.73-.54c3.15-4.31,3.54-9.13,1.17-14.73l.84-.35c2.46,5.84,2.03,11.09-1.28,15.62Z"/>
  <path class="cls-2" d="m1.96,29.16L30.1,1.93c-1.41.06-17.25-.02-18.15,0-3.15.07-4.06.01-5.26.52-1.17.5-1.97,1.26-2.47,1.83-1.29,1.46-1.75,2.77-1.94,3.66-.15.69-.24.81-.3,2.88-.04,1.46.02,17.59-.01,18.33Z"/>
  <path class="cls-2" d="m82.71,29.61l-27.78,26.07c1.41-.07,16.95-.02,17.85-.05,3.15-.09,4.06-.04,5.26-.56,1.17-.51,1.97-1.27,2.46-1.84,1.28-1.47,1.73-2.78,1.92-3.67.14-.69.24-.81.28-2.88.03-1.46-.02-16.33,0-17.07Z"/>
</svg>