<?xml version="1.0" encoding="UTF-8"?>
<svg id="Layer_1" data-name="Layer 1" xmlns="http://www.w3.org/2000/svg" viewBox="0 0 85.08 79.43">
  <defs>
    <style>
      .cls-1 {
        fill: #fbb040;
      }
    </style>
  </defs>
  <circle class="cls-1" cx="42.61" cy="39.52" r="24.62"/>
  <path class="cls-1" d="m85.08,40.51c-5.97-2.2-11.76-8.22-11.76-14.95,0-3.71,1.3-7.12,3.46-9.8-1.67.59-3.47.92-5.34.91-5.73-.05-10.86-2.96-13.67-7.96-1.71-3.04-2.01-6.02-1.74-8.71-2.72,4.58-7.71,7.15-13.43,7.15-6.12,0-10.06-2.02-12.62-7.15.14.83,0,1.39,0,2.27,0,8.63-6.97,14.37-15.6,14.37-1.91,0-3.63-.38-5.32-1.01,1.82,3.37,2.53,6.33,2.53,10.22,0,6.73-5.63,12.45-11.6,14.65,5.97,2.2,11.5,6.24,11.5,12.97,0,4.14-.7,7.39-2.43,10.02,1.86-.67,4.41-1.08,6.94-.92,7.56.48,13.23,8.87,13.93,16.85,2.84-3.93,7.45-7.54,12.67-7.54,5.67,0,10.63,2.7,13.36,7.23.17-8.48,7.09-16.67,15.61-16.67,2.02,0,3.44.34,5.21,1.04-2.46-2.76-3.4-5.99-3.4-9.98,0-6.73,5.73-10.79,11.7-12.99Zm-42.48,27.23c-15.59,0-28.22-12.64-28.22-28.22s12.64-28.22,28.22-28.22,28.22,12.64,28.22,28.22-12.64,28.22-28.22,28.22Z"/>
</svg>