<svg xmlns="http://www.w3.org/2000/svg" xmlns:xlink="http://www.w3.org/1999/xlink" xmlns:inkscape="http://www.inkscape.org/namespaces/inkscape" version="1.1" width="1215.68" height="857.505" viewBox="0 0 1215.68 857.505">
<defs>
<clipPath id="clip_1">
<path transform="matrix(1,0,0,-1,0,857.505)" d="M0 857.505H1215.679V0H0Z"/>
</clipPath>
</defs>
<g inkscape:groupmode="layer" inkscape:label="Layer 1">
<g clip-path="url(#clip_1)">
<path transform="matrix(1,0,0,-1,453.3889,200.7005)" d="M0 0C-7.685 49.473-23.482 69.123-64.479 69.143-75.355 69.075-84.914 67.541-93.433 65.154-106.33 77.503-115.685 84.922-122.236 82.708-130.638 79.868-143.808 67.367-143.742 51.767-143.724 47.316-142.546 43.441-140.52 40.147-152.143 32.132-160.564 27.57-169.336 35.619-183.503 46.039-184.833 62.77-184.833 62.77-189.772 58.684-207.338 53.507-207.207 22.295-207.077-8.918-189.669-20.806-189.669-20.806-189.669-20.806-177.733 7.232-166.19 9.383-162.24 10.118-154.206 3.88-147.435-2.242-148.676-7.78-153.65-33.442-140.822-39.346-136.131-40.297-121.104-33.893-111.487-29.459-97.506-35.793-77.367-41.449-50.458-40.864-34.651-40.52 1.319-38.687 0 0" fill="#59595c" fill-rule="evenodd"/>
<path transform="matrix(1,0,0,-1,453.3889,200.7005)" stroke-width="7.744" stroke-linecap="butt" stroke-miterlimit="10" stroke-linejoin="miter" fill="none" stroke="#ffffff" d="M0 0C-7.685 49.473-23.482 69.123-64.479 69.143-75.355 69.075-84.914 67.541-93.433 65.154-106.33 77.503-115.685 84.922-122.236 82.708-130.638 79.868-143.808 67.367-143.742 51.767-143.724 47.316-142.546 43.441-140.52 40.147-152.143 32.132-160.564 27.57-169.336 35.619-183.503 46.039-184.833 62.77-184.833 62.77-189.772 58.684-207.338 53.507-207.207 22.295-207.077-8.918-189.669-20.806-189.669-20.806-189.669-20.806-177.733 7.232-166.19 9.383-162.24 10.118-154.206 3.88-147.435-2.242-148.676-7.78-153.65-33.442-140.822-39.346-136.131-40.297-121.104-33.893-111.487-29.459-97.506-35.793-77.367-41.449-50.458-40.864-34.651-40.52 1.319-38.687 0 0Z"/>
<path transform="matrix(1,0,0,-1,378.7266,177.35968)" d="M0 0C.063-14.931 12.217-26.984 27.148-26.922 42.079-26.859 54.133-14.705 54.07 .226 54.008 15.157 41.853 27.211 26.922 27.148 11.991 27.086-.062 14.931 0 0" fill="#ffffff"/>
<path transform="matrix(1,0,0,-1,390.1253,177.31189)" d="M0 0C.036-8.636 7.066-15.607 15.702-15.571 24.337-15.535 31.309-8.505 31.273 .131 31.236 8.767 24.206 15.738 15.571 15.702 6.935 15.666-.036 8.636 0 0" fill="#59595c" fill-rule="evenodd"/>
<path transform="matrix(1,0,0,-1,886.2115,211.70124)" d="M0 0C-7.685 49.473-23.482 69.123-64.479 69.143-75.355 69.075-84.914 67.541-93.433 65.154-106.33 77.503-115.685 84.922-122.236 82.708-130.638 79.868-143.808 67.367-143.742 51.767-143.724 47.316-142.546 43.441-140.52 40.147-152.143 32.132-160.564 27.57-169.336 35.619-183.503 46.039-184.833 62.77-184.833 62.77-189.772 58.684-207.338 53.507-207.207 22.295-207.076-8.918-189.669-20.806-189.669-20.806-189.669-20.806-177.733 7.232-166.19 9.383-162.24 10.118-154.206 3.88-147.435-2.242-148.676-7.78-153.65-33.442-140.822-39.346-136.131-40.297-121.104-33.893-111.487-29.459-97.506-35.793-77.367-41.449-50.458-40.864-34.651-40.52 1.319-38.687 0 0" fill="#59595c" fill-rule="evenodd"/>
<path transform="matrix(1,0,0,-1,886.2115,211.70124)" stroke-width="7.744" stroke-linecap="butt" stroke-miterlimit="10" stroke-linejoin="miter" fill="none" stroke="#ffffff" d="M0 0C-7.685 49.473-23.482 69.123-64.479 69.143-75.355 69.075-84.914 67.541-93.433 65.154-106.33 77.503-115.685 84.922-122.236 82.708-130.638 79.868-143.808 67.367-143.742 51.767-143.724 47.316-142.546 43.441-140.52 40.147-152.143 32.132-160.564 27.57-169.336 35.619-183.503 46.039-184.833 62.77-184.833 62.77-189.772 58.684-207.338 53.507-207.207 22.295-207.076-8.918-189.669-20.806-189.669-20.806-189.669-20.806-177.733 7.232-166.19 9.383-162.24 10.118-154.206 3.88-147.435-2.242-148.676-7.78-153.65-33.442-140.822-39.346-136.131-40.297-121.104-33.893-111.487-29.459-97.506-35.793-77.367-41.449-50.458-40.864-34.651-40.52 1.319-38.687 0 0Z"/>
<path transform="matrix(1,0,0,-1,811.5493,188.36042)" d="M0 0C.062-14.931 12.217-26.984 27.148-26.922 42.079-26.859 54.133-14.705 54.07 .226 54.008 15.157 41.853 27.211 26.922 27.148 11.991 27.086-.063 14.931 0 0" fill="#ffffff"/>
<path transform="matrix(1,0,0,-1,822.948,188.31262)" d="M0 0C.036-8.636 7.066-15.607 15.702-15.571 24.337-15.535 31.309-8.505 31.273 .131 31.236 8.767 24.206 15.738 15.571 15.702 6.935 15.666-.036 8.636 0 0" fill="#59595c" fill-rule="evenodd"/>
<path transform="matrix(1,0,0,-1,453.3889,686.6294)" d="M0 0C-7.685 49.473-23.482 69.123-64.479 69.143-75.355 69.075-84.914 67.541-93.433 65.154-106.33 77.503-115.685 84.922-122.236 82.708-130.638 79.868-143.808 67.367-143.742 51.767-143.724 47.316-142.546 43.441-140.52 40.147-152.143 32.132-160.564 27.57-169.336 35.619-183.503 46.039-184.833 62.77-184.833 62.77-189.772 58.684-207.338 53.507-207.207 22.295-207.077-8.918-189.669-20.806-189.669-20.806-189.669-20.806-177.733 7.232-166.19 9.382-162.24 10.118-154.206 3.88-147.435-2.242-148.676-7.78-153.65-33.442-140.822-39.346-136.131-40.297-121.104-33.893-111.487-29.459-97.506-35.793-77.367-41.449-50.458-40.864-34.651-40.52 1.319-38.687 0 0" fill="#59595c" fill-rule="evenodd"/>
<path transform="matrix(1,0,0,-1,453.3889,686.6294)" stroke-width="7.744" stroke-linecap="butt" stroke-miterlimit="10" stroke-linejoin="miter" fill="none" stroke="#ffffff" d="M0 0C-7.685 49.473-23.482 69.123-64.479 69.143-75.355 69.075-84.914 67.541-93.433 65.154-106.33 77.503-115.685 84.922-122.236 82.708-130.638 79.868-143.808 67.367-143.742 51.767-143.724 47.316-142.546 43.441-140.52 40.147-152.143 32.132-160.564 27.57-169.336 35.619-183.503 46.039-184.833 62.77-184.833 62.77-189.772 58.684-207.338 53.507-207.207 22.295-207.077-8.918-189.669-20.806-189.669-20.806-189.669-20.806-177.733 7.232-166.19 9.382-162.24 10.118-154.206 3.88-147.435-2.242-148.676-7.78-153.65-33.442-140.822-39.346-136.131-40.297-121.104-33.893-111.487-29.459-97.506-35.793-77.367-41.449-50.458-40.864-34.651-40.52 1.319-38.687 0 0Z"/>
<path transform="matrix(1,0,0,-1,378.7266,663.2886)" d="M0 0C.063-14.931 12.217-26.984 27.148-26.922 42.079-26.859 54.133-14.705 54.07 .226 54.008 15.157 41.853 27.211 26.922 27.148 11.991 27.086-.062 14.931 0 0" fill="#ffffff"/>
<path transform="matrix(1,0,0,-1,390.1253,663.2408)" d="M0 0C.036-8.636 7.066-15.607 15.702-15.571 24.337-15.535 31.309-8.505 31.273 .131 31.236 8.767 24.206 15.738 15.571 15.702 6.935 15.666-.036 8.636 0 0" fill="#59595c" fill-rule="evenodd"/>
<path transform="matrix(1,0,0,-1,886.2115,675.6287)" d="M0 0C-7.685 49.473-23.482 69.123-64.479 69.143-75.355 69.075-84.914 67.541-93.433 65.154-106.33 77.503-115.685 84.922-122.236 82.708-130.638 79.868-143.808 67.367-143.742 51.767-143.724 47.316-142.546 43.441-140.52 40.147-152.143 32.132-160.564 27.57-169.336 35.619-183.503 46.039-184.833 62.77-184.833 62.77-189.772 58.684-207.338 53.507-207.207 22.295-207.076-8.918-189.669-20.806-189.669-20.806-189.669-20.806-177.733 7.232-166.19 9.382-162.24 10.118-154.206 3.88-147.435-2.242-148.676-7.78-153.65-33.442-140.822-39.346-136.131-40.297-121.104-33.893-111.487-29.459-97.506-35.793-77.367-41.449-50.458-40.864-34.651-40.52 1.319-38.687 0 0" fill="#59595c" fill-rule="evenodd"/>
<path transform="matrix(1,0,0,-1,886.2115,675.6287)" stroke-width="7.744" stroke-linecap="butt" stroke-miterlimit="10" stroke-linejoin="miter" fill="none" stroke="#ffffff" d="M0 0C-7.685 49.473-23.482 69.123-64.479 69.143-75.355 69.075-84.914 67.541-93.433 65.154-106.33 77.503-115.685 84.922-122.236 82.708-130.638 79.868-143.808 67.367-143.742 51.767-143.724 47.316-142.546 43.441-140.52 40.147-152.143 32.132-160.564 27.57-169.336 35.619-183.503 46.039-184.833 62.77-184.833 62.77-189.772 58.684-207.338 53.507-207.207 22.295-207.076-8.918-189.669-20.806-189.669-20.806-189.669-20.806-177.733 7.232-166.19 9.382-162.24 10.118-154.206 3.88-147.435-2.242-148.676-7.78-153.65-33.442-140.822-39.346-136.131-40.297-121.104-33.893-111.487-29.459-97.506-35.793-77.367-41.449-50.458-40.864-34.651-40.52 1.319-38.687 0 0Z"/>
<path transform="matrix(1,0,0,-1,811.5493,652.2879)" d="M0 0C.062-14.931 12.217-26.984 27.148-26.922 42.079-26.859 54.133-14.705 54.07 .226 54.008 15.157 41.853 27.211 26.922 27.148 11.991 27.086-.063 14.931 0 0" fill="#ffffff"/>
<path transform="matrix(1,0,0,-1,822.948,652.24026)" d="M0 0C.036-8.636 7.066-15.607 15.702-15.571 24.337-15.535 31.309-8.505 31.273 .131 31.236 8.767 24.206 15.738 15.571 15.702 6.935 15.666-.036 8.636 0 0" fill="#59595c" fill-rule="evenodd"/>
<path transform="matrix(1,0,0,-1,450.764,333.091)" d="M0 0-82.987 87.625" fill="#ffffff"/>
<path transform="matrix(1,0,0,-1,450.764,333.091)" stroke-width="17" stroke-linecap="butt" stroke-miterlimit="10" stroke-linejoin="miter" fill="none" stroke="#59595c" d="M0 0-57.821 61.052"/>
<path transform="matrix(1,0,0,-1,416.5239,259.95484)" d="M0 0-48.747 14.489-36.928-34.973Z" fill="#59595c"/>
<path transform="matrix(1,0,0,-1,627.5109,513.65957)" d="M0 0 103.058-96.603" fill="#ffffff"/>
<path transform="matrix(1,0,0,-1,627.5109,513.65957)" stroke-width="17" stroke-linecap="butt" stroke-miterlimit="10" stroke-linejoin="miter" fill="none" stroke="#59595c" d="M0 0 76.356-71.573"/>
<path transform="matrix(1,0,0,-1,681.0468,598.69766)" d="M0 0 49.522-11.565 34.783 37.107Z" fill="#59595c"/>
<path transform="matrix(1,0,0,-1,467.0056,528.9457)" d="M0 0-75.314-85.399" fill="#ffffff"/>
<path transform="matrix(1,0,0,-1,467.0057,528.9457)" stroke-width="17" stroke-linecap="butt" stroke-miterlimit="10" stroke-linejoin="miter" fill="none" stroke="#59595c" d="M0 0-51.106-57.95"/>
<path transform="matrix(1,0,0,-1,401.748,564.4948)" d="M0 0-10.056-49.85 38.146-33.641Z" fill="#59595c"/>
<path transform="matrix(1,0,0,-1,643.7526,336.9126)" d="M0 0 82.733 91.447" fill="#ffffff"/>
<path transform="matrix(1,0,0,-1,643.7525,336.9126)" stroke-width="17" stroke-linecap="butt" stroke-miterlimit="10" stroke-linejoin="miter" fill="none" stroke="#59595c" d="M0 0 58.18 64.307"/>
<path transform="matrix(1,0,0,-1,715.7979,295.1847)" d="M0 0 10.688 49.719-37.716 34.122Z" fill="#59595c"/>
<path transform="matrix(1,0,0,-1,532.2752,298.69569)" d="M0 0C-1.468 0-2.894-.228-4.292-.694-16.134-4.642-32.539-20.795-32.539-40.854-32.539-45.129-31.745-49.154-30.172-52.871-37.271-57.523-42.25-59.96-46.478-59.96-49.475-59.96-52.094-58.736-54.826-56.208L-55.202-55.897C-69.693-45.144-71.276-27.678-71.29-27.517L-71.94-18.879-78.638-24.373C-79.283-24.903-80.406-25.59-81.705-26.386-89.756-31.317-106.508-41.578-106.508-74.828-106.508-113.063-85.272-128.136-84.368-128.759L-79.85-131.871-77.677-126.833C-72.241-114.233-61.163-95.865-53.601-94.487-53.596-94.486-53.588-94.486-53.576-94.486-53.385-94.486-52.26-94.558-49.532-96.129-60.054-102.73-71.137-116.571-71.137-133.06-71.137-137.334-70.342-141.359-68.769-145.076-75.87-149.729-80.848-152.165-85.076-152.165-88.073-152.165-90.692-150.941-93.424-148.413L-93.799-148.102C-108.29-137.35-109.874-119.884-109.887-119.722L-110.537-111.085-117.235-116.578C-117.881-117.108-119.003-117.795-120.303-118.591-128.354-123.522-145.105-133.782-145.105-167.034-145.105-205.268-123.87-220.341-122.966-220.964L-118.447-224.076-116.274-219.038C-110.84-206.438-99.761-188.07-92.198-186.692-92.193-186.692-92.182-186.691-92.167-186.691-91.766-186.691-87.96-187.01-76.142-197.474-78.431-208.898-81.807-235.592-65.58-243.144L-65.106-243.365-64.593-243.471C-64.111-243.571-63.449-243.708-62.378-243.708-58.804-243.708-50.676-242.18-29.5-232.643-9.65-241.381 12.96-245.802 37.788-245.802 39.022-245.802 40.262-245.791 41.507-245.769 52.391-245.578 77.879-245.13 93.06-229.21 99.224-222.747 102.989-214.468 104.315-204.513 105.68-203.919 107.094-203.294 108.584-202.623 128.434-211.36 151.044-215.781 175.872-215.781 177.107-215.781 178.346-215.77 179.591-215.749 190.475-215.557 215.963-215.109 231.145-199.19 239.393-190.541 243.35-178.642 242.908-163.822L242.859-163.284C238.128-131.965 230.784-112.159 219.046-99.067 206.701-85.297 189.133-78.828 163.728-78.709 155.386-78.726 147.409-79.45 139.585-80.9 134.951-60.863 128.543-46.902 119.56-36.882 107.215-23.112 89.646-16.643 64.241-16.524 52.949-16.547 42.323-17.857 31.845-20.524 18.165-7.467 8.401 0 0 0M.149-15.03C.691-15.145 2.493-15.684 6.033-18.127 9.914-20.806 14.826-25.016 21.489-31.375L27.496-37.109 35.544-35.061C44.801-32.705 54.183-31.548 64.226-31.524 85.336-31.631 98.958-36.372 108.391-46.895 115.685-55.031 120.953-66.911 124.971-84.281L128.205-98.265 142.318-95.649C149.268-94.361 156.266-93.727 163.714-93.709 184.823-93.816 198.444-98.557 207.878-109.08 217.471-119.781 223.664-137.008 227.93-164.882 228.142-175.387 225.64-183.228 220.29-188.838 209.433-200.222 188.336-200.593 179.328-200.751 178.171-200.771 177.019-200.781 175.872-200.781 153.153-200.781 132.547-196.782 114.627-188.894L108.514-186.204 102.425-188.946C100.994-189.59 99.636-190.19 98.326-190.76L90.565-194.141 89.447-202.532C88.537-209.362 86.168-214.703 82.205-218.858 71.349-230.242 50.252-230.613 41.244-230.771 40.087-230.792 38.935-230.802 37.788-230.802 15.069-230.802-5.537-226.802-23.457-218.915L-29.57-216.224-35.66-218.966C-50.447-225.626-57.525-227.734-60.542-228.402-63.173-224.794-64.2-214.223-61.434-200.421L-59.739-191.962-66.198-186.243C-80.681-173.42-87.453-171.691-92.167-171.691L-92.749-171.692-93.298-171.732-94.099-171.791-94.888-171.935C-102.599-173.341-109.74-179.116-117.362-190.111-119.137-192.671-120.933-195.525-122.664-198.511-126.454-191.869-130.105-181.671-130.105-167.034-130.105-150.766-125.557-142.362-120.442-137.29-117.331-144.607-112.061-153.08-103.177-159.818-97.735-164.694-91.648-167.165-85.076-167.165-76.807-167.165-69.29-163.351-60.548-157.623L-50.076-150.761-54.955-139.23C-55.75-137.352-56.137-135.333-56.137-133.06-56.137-122.698-48.581-113.239-41.561-108.835L-20.427-95.578-42.047-83.13C-46.364-80.644-50.027-79.486-53.576-79.486L-53.989-79.487-54.376-79.507-55.34-79.557-56.29-79.73C-64.001-81.135-71.142-86.911-78.764-97.906-80.539-100.466-82.336-103.32-84.066-106.306-87.857-99.664-91.508-89.466-91.508-74.828-91.508-58.564-86.96-50.16-81.844-45.085-78.733-52.403-73.465-60.875-64.579-67.613-59.137-72.489-53.05-74.96-46.478-74.96-38.207-74.96-30.691-71.145-21.95-65.417L-11.479-58.555-16.358-47.025C-17.153-45.146-17.539-43.128-17.539-40.854-17.539-27.973-6.192-17.355 .149-15.03" fill="#59595c"/>
</g>
</g>
</svg>
