<?xml version="1.0" encoding="UTF-8"?>
<svg id="Layer_1" data-name="Layer 1" xmlns="http://www.w3.org/2000/svg" viewBox="0 0 789.97 473.96">
  <defs>
    <style>
      .cls-1 {
        fill: #fff;
      }

      .cls-2 {
        fill: #464749;
      }

      .cls-3 {
        fill: #474749;
        fill-rule: evenodd;
      }
    </style>
  </defs>
  <path class="cls-3" d="m242.5,119.1c0,59.49,52.92,93.21,118.21,93.21,65.29,0,160.8-57.35,118.63-99.32C406.42,40.41,357.1-9.25,325.02,1.45c-32.09,10.7-82.51,58.16-82.51,117.66Z"/>
  <path class="cls-3" d="m396.32,414.23s-117.15,57.98-144.14,52.4c-54.81-25.51-23.65-145.7-23.65-145.7l167.79,93.31Z"/>
  <path class="cls-3" d="m85.97,76.49s4.81,63.83,58.67,103.79c79.37,73.44,152-125.67,400.42-126.17,156.35.73,216.28,75.92,244.8,264.72,4.41,147.56-132.79,153.98-193.08,155.03-225.51,3.96-326.28-106.41-326.28-106.41,0,0-85.45-92.3-114.28-87.06-44.06,8.02-90.02,114.75-90.02,114.75,0,0-66.2-45.61-66.2-164.65S67.07,91.99,85.97,76.49Z"/>
  <g>
    <circle class="cls-1" cx="631.56" cy="237.59" r="103.1"/>
    <circle class="cls-2" cx="631.56" cy="237.59" r="59.63"/>
  </g>
</svg>